<?xml version="1.0" encoding="UTF-8"?>
<svg xmlns="http://www.w3.org/2000/svg" id="Capa_1" data-name="Capa 1" viewBox="0 0 105.5 107.24">
  <defs>
    <style>.cls-1{fill:#fff;}</style>
  </defs>
  <g id="Page-1">
    <g id="santa-cruz">
      <g id="Imported-Layers">
  <path id="Fill-292" class="cls-1" d="M59.1,67c-.27-1.64-1.87-1.55-3-2.45h0l3.66-.78L56.32,63l.08-.06c1.08-.71,2.46-.76,2.7-2.27a5.46,5.46,0,0,1-3.17.74h0l1.7-2.59L55,60.39l0-.34a4.33,4.33,0,0,1,.63-2.66c-1.51.28-1.52,1.65-2.2,2.74l-.14.18-.82-3.86-.82,3.79-.07-.11c-.7-1.09-.7-2.46-2.22-2.74A4.29,4.29,0,0,1,50,60.05v.37l-2.71-1.61L49,61.4l-.48,0a4.37,4.37,0,0,1-2.66-.7c.24,1.51,1.62,1.56,2.7,2.27l.07,0-3.5.73,3.69.78h0c-1.1.9-2.7.81-3,2.45a4.35,4.35,0,0,1,2.66-.7l.4,0-1.61,2.41L50,67v0c-.1,1.12.23,1.48-.66,3.16,1.47-.27,1.52-1.56,2.15-2.63l.18-.24L52.46,71l.79-3.7.23.31c.62,1.07.67,2.36,2.14,2.63A4.31,4.31,0,0,1,55,67.56l0-.47,2.65,1.54L56,66.22l.42,0a4.38,4.38,0,0,1,2.67.7Zm-6.62-2.38a.36.36,0,0,0,.35-.28l.09,0H53a.18.18,0,0,0,.15.15.16.16,0,0,0,.19,0c0-.06,0-.16-.06-.29l.16-.1c.18.26.11.43,0,.5a.34.34,0,0,1-.28.13H53.1a.47.47,0,0,1-.19-.12.53.53,0,0,1-.42.23h0a.61.61,0,0,1-.47-.23.47.47,0,0,1-.19.12h-.12a.36.36,0,0,1-.29-.13c0-.08-.11-.24.06-.5l.16.1c-.08.13-.11.23-.06.29a.17.17,0,0,0,.2,0,.17.17,0,0,0,.14-.15H52l.09,0a.42.42,0,0,0,.4.28Zm-2.94-2.3a1.89,1.89,0,0,1,2.3-.39c.55.39.62,1.19.2,2.13l-.17-.08c.38-.85.32-1.56-.15-1.9a1.71,1.71,0,0,0-2,.38l-.13-.14Zm.13.44c1.13-.84,1.53-.54,1.9-.27a1,1,0,0,0,.34.21l0,.18a1.16,1.16,0,0,1-.42-.24c-.34-.25-.65-.48-1.66.27l-.12-.15Zm2,.12,0,0a1.08,1.08,0,0,1-.74.3,1.51,1.51,0,0,1-.85-.31l0,0,0,0a1.09,1.09,0,0,1,1.59,0l0,0ZM50,63.06,50,63a1.51,1.51,0,0,0,1.72,0l.05.08a1.77,1.77,0,0,1-.93.29,1.66,1.66,0,0,1-.89-.28Zm3.64,2.48a3,3,0,0,1-1.2.25,2.81,2.81,0,0,1-1.15-.25.09.09,0,0,1-.05-.12s.06,0,.11,0v0h2.24v0a.11.11,0,0,1,.11,0,.1.1,0,0,1-.06.12Zm.4-2.2a1.77,1.77,0,0,1-.92-.29l0-.08a1.5,1.5,0,0,0,1.72,0l0,.07a1.66,1.66,0,0,1-.9.28Zm-.78-.52,0,0a1.08,1.08,0,0,1,1.58,0l0,0,0,0a1.46,1.46,0,0,1-.85.31,1.07,1.07,0,0,1-.73-.3l0,0Zm1.89,0c-1-.75-1.34-.52-1.67-.27a1.35,1.35,0,0,1-.42.24l0-.18a1.43,1.43,0,0,0,.36-.2c.36-.28.76-.58,1.89.26l-.11.15Zm.1-.45A1.71,1.71,0,0,0,53.19,62c-.47.34-.53,1-.15,1.9l-.17.08c-.42-.94-.34-1.74.21-2.13a1.86,1.86,0,0,1,2.28.39l-.12.14Z"></path>
  <path id="Fill-293" class="cls-1" d="M53.11,65.53H51.77a2.76,2.76,0,0,0,1.34,0"></path>
  <path id="Fill-294" class="cls-1" d="M51.05,63.05a1.09,1.09,0,0,0,.5-.23,1.05,1.05,0,0,0-.5-.28l.06,0a.3.3,0,0,1,0,.43l-.06,0"></path>
  <path id="Fill-295" class="cls-1" d="M50.7,62.54a1.59,1.59,0,0,0-.55.26,1.47,1.47,0,0,0,.55.24l0,0a.29.29,0,0,1,0-.43l0,0"></path>
  <path id="Fill-296" class="cls-1" d="M54.28,63l0,0a1.44,1.44,0,0,0,.51-.23,1.5,1.5,0,0,0-.51-.25l0,0a.29.29,0,0,1,0,.43"></path>
  <path id="Fill-297" class="cls-1" d="M53.9,62.54a1,1,0,0,0-.53.28,1.1,1.1,0,0,0,.52.23l-.06,0a.29.29,0,0,1,0-.43l.07,0"></path>
  <path class="cls-1" d="M37.17,66.08a1.41,1.41,0,0,0-.2-.66,2.72,2.72,0,0,0-.63.27,4,4,0,0,0,.27.5C36.74,66.41,37.17,66.34,37.17,66.08Z"></path>
  <path class="cls-1" d="M38,68.23c.35-.28-.11-.68-.26-1-.17.1-.33.2-.5.32C37.48,67.83,37.62,68.39,38,68.23Z"></path>
  <path class="cls-1" d="M38.49,69.58c-.34.14-.72.42-.7.81a.64.64,0,0,0,.77.59,1.19,1.19,0,0,0,.79-.69A.64.64,0,0,0,38.49,69.58Z"></path>
  <path class="cls-1" d="M47.18,77.29l.59.19c0-.3,0-.6,0-.9A3.51,3.51,0,0,0,47.18,77.29Z"></path>
  <path class="cls-1" d="M50.75,77.14c0,.53-.13,1.06-.17,1.59.31,0,.75.16,1-.14a1.64,1.64,0,0,0,.12-1.07C51.54,77.16,51.07,77.18,50.75,77.14Z"></path>
  <path class="cls-1" d="M59,76.86a5.22,5.22,0,0,0-.64-.6c0,.29,0,.58.08.88Z"></path>
  <path class="cls-1" d="M66.74,69.07a2.3,2.3,0,0,0-.39.55c.16.1.32.17.48.27.11-.22.25-.4.34-.62S66.88,68.9,66.74,69.07Z"></path>
  <path class="cls-1" d="M64.37,73.36a4.12,4.12,0,0,0-.74-.34c.1.25.21.48.33.73Z"></path>
  <polygon class="cls-1" points="73.82 23.77 73.81 23.77 73.82 23.77 73.82 23.77"></polygon>
  <polygon class="cls-1" points="62.43 27.18 62.96 27.05 63.38 27.45 63.54 26.91 64.09 26.75 63.71 26.34 63.86 25.76 63.32 25.9 62.91 25.5 62.75 26.03 62.2 26.2 62.56 26.61 62.43 27.18"></polygon>
  <polygon class="cls-1" points="60.04 33.06 60.57 32.94 60.98 33.35 61.15 32.81 61.7 32.65 61.34 32.24 61.48 31.67 60.95 31.79 60.54 31.38 60.37 31.92 59.81 32.08 60.19 32.49 60.04 33.06"></polygon>
  <polygon class="cls-1" points="56.3 28.82 56.81 28.61 57.28 28.93 57.34 28.37 57.86 28.11 57.42 27.77 57.46 27.18 56.96 27.4 56.48 27.08 56.41 27.64 55.9 27.9 56.34 28.24 56.3 28.82"></polygon>
  <polygon class="cls-1" points="57.49 30.8 56.99 31.02 56.52 30.7 56.45 31.26 55.94 31.52 56.38 31.85 56.34 32.44 56.84 32.22 57.32 32.55 57.38 31.99 57.9 31.73 57.46 31.4 57.49 30.8"></polygon>
  <path class="cls-1" d="M52.8,17c-14.33,0-26,15.21-26,33.91s11.66,33.92,26,33.92,26-15.22,26-33.92S67.13,17,52.8,17Zm-22,22.94c1.23-4.17,2.89-8.45,5.68-11.87A23.61,23.61,0,0,1,45.68,21a19,19,0,0,1,13.61-.16,25,25,0,0,1,9.06,6.56,26.31,26.31,0,0,1,5.51,9.16,52.25,52.25,0,0,1,1.75,7.21,20.94,20.94,0,0,1,.3,2.65,3.36,3.36,0,0,1-.5.23c-.17.08-.41.25-.55,0a1.24,1.24,0,0,1,0-.43,1.84,1.84,0,0,0,0-.41,1.66,1.66,0,0,0-.29-.7,3.57,3.57,0,0,0-1.21-1,7.6,7.6,0,0,0-.76-.37,5.22,5.22,0,0,0-.84-.29c-1-.25-3.5-.25-3.5-.5s-.1-1-1.51-1-1.2.3-2,0-3.4-1.2-3.4-1.2A7.35,7.35,0,0,0,59.48,39c-.75-.35-1.7-.85-2.41-.35s-.55.55-1,1a19.12,19.12,0,0,0-1.5,1.5l-1.25,2.15s-1.4-.75-1.51-1.8.26-4.06.11-6-.51-4.15-.6-4.95-1.71-1.46-2.26-2a9.43,9.43,0,0,1-2-2.4c-.41-.85-1-1.81-1.46-1.91s-.95-.3-1.35.3a28.9,28.9,0,0,1-1.51,2.76c-.34.3-.4.9-.79,1.4A6.41,6.41,0,0,0,40.1,31a48.41,48.41,0,0,0-2.16,6.56c0,.55-.15,3-.65,3a9.17,9.17,0,0,0-3.16,1A12.87,12.87,0,0,1,31.93,43a11.69,11.69,0,0,1-2.06.55A25.85,25.85,0,0,0,30.84,39.94Zm-1.35,4.91a2.38,2.38,0,0,0,1.62-.45c.76-.48,1.72-.55,2.35-1.19a12.89,12.89,0,0,1,2.46-1.77,2.52,2.52,0,0,1,1.44-.09c.2-.07.48,0,.65-.15.54-1.4.14-2.85.8-4.18a2.93,2.93,0,0,0,0,1.18c0,.39.08.78.1,1.17a4.6,4.6,0,0,1-.43,2.16,7.48,7.48,0,0,1,2.06.06c1,.26,2,.59,3,.82a4.64,4.64,0,0,1,.72.13,4.54,4.54,0,0,1,.69.19c.44.11.38,1,.35,1.33a2.18,2.18,0,0,0,0,.51c0,.19,0,.38,0,.58a1.36,1.36,0,0,0,.07.53c.15.25.37,0,.51-.17a3,3,0,0,0,.44-.95,2.79,2.79,0,0,0,.29-1.2c0,.1,0-.41,0-.63a8.26,8.26,0,0,0-.06-1.31A7,7,0,0,1,46.76,40c.28-1.93-.48-3.81-.59-5.71,0-.19-.11-2.29.1-2.26s.23.76.24.86c.35,2,.45,3.94.75,5.9a11.26,11.26,0,0,0-.08,1.25,4.8,4.8,0,0,1,.14,1.41c0,.43-.15.85-.18,1.27,0,.05.26-.13.26-.14a1,1,0,0,0,.3-1c0-.16.21-6.15.12-8.3a7,7,0,0,0-.2-1.36,2,2,0,0,0-.42-1.06c-.12-.11-.25-.17-.33-.32s-.08-.35-.15-.51A2.33,2.33,0,0,0,46,29c-.54-.36.16-1.27-.6-1.45-.18-.05-.3.42-.38.53-.22.28-.61.26-.93.32-1.14.22-1.37,1.53-1.44,1.64-.22.4-.5.76-.68,1.18s-.32.94-.48,1.4l-.74,2.09A18.64,18.64,0,0,0,40,36.91c-.09.39-.19.77-.27,1.17a7.45,7.45,0,0,0-.08,1.16c0,.08,0,.42-.14.28s-.15-.89-.17-1.21-.07-.72-.13-1.08a2.84,2.84,0,0,0-.09-.42c0-.08-.12-.21-.1-.29a18.81,18.81,0,0,1,1.73-5.38c.25-1.06,1.41-1.48,1.81-2.44a1.39,1.39,0,0,1,.82-1c.43-.84.77-1.73,1.18-2.57.21-.56.75-.7,1.18-.15.6.8,1,1.72,1.58,2.57a7.64,7.64,0,0,0,2.1,1.83c.27.5,1,.48,1.15,1.05a8.69,8.69,0,0,1,.28,2.6c.24,1.44.22,2.93.56,4.34a8.12,8.12,0,0,1-.93-3.41c-.1-.51.15-1.06-.14-1.54-.18.15-.23.4-.41.55a2.61,2.61,0,0,1-.36-1v-.06c-.07-.1-.13-.23-.25-.22a12,12,0,0,0,.58,3c.3,1.14.56,2.3.93,3.42a13.77,13.77,0,0,1,.27,2.8,4.15,4.15,0,0,0,.76,2.33,5.63,5.63,0,0,0,1.27.82c.23.13.43.34.67.09a3.87,3.87,0,0,0,.36-.59c.34-.52.65-1.05,1-1.59.16-.26.31-.52.45-.79.25-.57.92-.74,1.27-1.23.24-.25.39-.7.8-.7s.06.31.08.46a3.33,3.33,0,0,0-.14.93l-.32.12c-.53.3-.22,1.17-.72,1.48-.08.06-.17-.47-.18-.5s-.16-.62-.32-.31c-.06.14-.36.91-.61,1.59a1.91,1.91,0,0,0-.41.26,1.24,1.24,0,0,0-.27.32,1.14,1.14,0,0,0-.16,1.15c.22.49.78.64,1.25.78a11.71,11.71,0,0,0,2.07.62c.42.05.94,0,1.41.06a1.06,1.06,0,0,0,.35,0h0A.83.83,0,0,0,60,46c.34-.2.68-.42,1-.64s1.34-.75,1.48-1.23.63-.49.46-.93c0-.25-1.85-1-2.69-.86-.06,0-.36-.22-.43-.26-.24-.12-.43-.27-.55.05,0,0-.21.57-.3.34s.07-.76-.34-.71a.8.8,0,0,0-.08.16l-.25-.5a3.09,3.09,0,0,0-.09-.53,2.63,2.63,0,0,1,.42-1.29,1.34,1.34,0,0,0,.06-.12,11.17,11.17,0,0,1,2.07,1.82c.89.34,2,.28,2.76.89a5.58,5.58,0,0,0,2.65.8c.62.11,1.61.34.67,1s-1.6,1.22-2.36,1.88c-.38.33-1.21,1.07-.62,1.59s1.34.19,1.95.2a17,17,0,0,1,3.15.49c.37.07,1.42.31,1.41-.37s-.74-1.23,0-1.81c.19-.14,1.23-.73.66-1a3,3,0,0,1-.86-.39c-.21-.2-.41-.68-.1-.87s.8.1,1.07.18a6.44,6.44,0,0,1,2.24,1,2.09,2.09,0,0,1,.77.94c.19.54.1,1.53.93,1.49.35,0,1-.22,1.05.31.06.84-.49,1.57-1.36,1.36a8.27,8.27,0,0,0-2-.27,8.08,8.08,0,0,0-1.94.41,5.94,5.94,0,0,1-1.16.28,6.84,6.84,0,0,1-1.27-.13c-.56-.08-1.11-.28-1.67-.35L66,48.92a16.22,16.22,0,0,0-1.63-.52c-1.44-.38-2.11.39-2.93,1.44a5.26,5.26,0,0,1-2.22,1.43v0a4.53,4.53,0,0,0-.94-1.37,3.35,3.35,0,0,0-.61-.69c-.31-.26-.33-.07-.65.16s-1.08-.63-1.21-.74c-.65-.49-1.26-1-1.89-1.52a4,4,0,0,1-.78-.85,5.14,5.14,0,0,0-.64-1c-.45-.41-.74-.1-1.22.09-.32.13-.63.26-1,.36L49.22,46h-.08a3,3,0,0,0-1.26.17,7,7,0,0,0-1.54,1.18l-1.43,1.11a1.18,1.18,0,0,1-1,.27l-1.18-.14a9.72,9.72,0,0,0-2.89.23,5.91,5.91,0,0,0-1.58.44,6,6,0,0,0-.69.42,2,2,0,0,0-.26.2,3.19,3.19,0,0,1-.81-.13c-1,0-1.94-.42-2.89-.46a8.52,8.52,0,0,0-.9.26h0l-3.53-1.64C29.24,46.86,29.34,45.85,29.49,44.85Zm35.78,2.63H65.2l-.1-.07,0,0s0,0,.07,0Zm11,5.36a39,39,0,0,1-2.41,11.94,31.88,31.88,0,0,1-5.49,9.53,22.87,22.87,0,0,1-8.94,6.62,18.35,18.35,0,0,1-5.74,1.28c-.29,0-.55,0-.78,0h-.41a5.43,5.43,0,0,0-.57,0,7,7,0,0,1-.78-.06,18.72,18.72,0,0,1-7.34-2.24,24.17,24.17,0,0,1-7.59-6.63,33.61,33.61,0,0,1-5.76-11.91,40.38,40.38,0,0,1-1.18-6.58c-.11-1.07-.16-2.15-.19-3.38l30.05.15h0l17.18,0a2.09,2.09,0,0,0,0,.25C76.26,52.2,76.26,52.51,76.23,52.84Z"></path>
  <path class="cls-1" d="M72.68,58.87l-2.51,1.7-1.32-2.89a48.29,48.29,0,0,1-1.92,6.49l1.39-.71c-8.17,18.57-25.12,15.18-31,.18l-.23.09.27-.12,1.58.34a64.16,64.16,0,0,1-2.18-6.13l-1.19,2.56L33,59c.59,1.77,1.27,3.71,2.06,5.49l-1.09.41c6.88,19,28.71,21.43,37.66,0l-.47-.22.06,0A57,57,0,0,0,72.68,58.87ZM35,65.87v-.08c.73-.32,1.43-.66,2.15-1A5.92,5.92,0,0,1,37.64,66a.73.73,0,0,1-1.14.65,2.6,2.6,0,0,1-.54-.82l-.79.35C35.1,66.09,35,66,35,65.87Zm1.76,3.31c.13-.46.57-.91.26-1.39l-.86.5-.25-.35c.63-.46,1.33-.85,2-1.28a9,9,0,0,1,.77,1.26c.16.42-.31.87-.74.8a2.35,2.35,0,0,1-.42-.21A3.44,3.44,0,0,1,37,69.65,1.72,1.72,0,0,1,36.72,69.18Zm.71.69a1.6,1.6,0,0,1,1-.76,1.15,1.15,0,0,1,1.32,1.55,1.56,1.56,0,0,1-1.05.78A1.16,1.16,0,0,1,37.43,69.87Zm2,3.16c-.09-.12-.25-.23-.31-.39.37-.72.76-1.44,1.16-2.14.1.12.26.23.31.38-.23.52-.58,1-.81,1.53.57-.19,1.1-.48,1.65-.69l.32.36C41,72.41,40.23,72.73,39.44,73Zm1.1,1,1.55-1.72a1,1,0,0,1,.35.29c-.49.6-1,1.16-1.55,1.74Zm1.81,1.63c.06-.56.17-1.12.21-1.7A11.79,11.79,0,0,0,41.63,75c-.13-.07-.24-.15-.36-.23.45-.63,1-1.21,1.5-1.82.11.09.23.19.36.28-.08.6-.17,1.17-.25,1.77.39-.34.62-.81,1-1.13.12.06.21.14.33.21-.47.64-1,1.23-1.5,1.83A3.65,3.65,0,0,1,42.35,75.61Zm2.12,1c.14,0,.26-.13.41-.18s.22.23.31.34a1.14,1.14,0,0,1-.71.27,1,1,0,0,1-1-1.17,1.43,1.43,0,0,1,1-1.16,1.05,1.05,0,0,1,1.31,1.18l-.46-.11a.91.91,0,0,0-.11-.49.58.58,0,0,0-.78-.07,1.46,1.46,0,0,0-.47.75A.54.54,0,0,0,44.47,76.57Zm.86.94q.49-1,1-2l.37.18c.05.13-.07.24-.11.36-.3.58-.59,1.17-.88,1.76C45.6,77.68,45.36,77.68,45.33,77.51Zm2.51,1c0-.19,0-.39-.05-.59l-.9-.27c-.11.14-.24.29-.35.44l-.47-.16c.45-.56.91-1.11,1.36-1.66.1-.09.15-.21.27-.25a3.81,3.81,0,0,1,.45.13c.05.83.13,1.65.17,2.48Zm4.36-.41a1.12,1.12,0,0,1-.81,1.11,8.64,8.64,0,0,1-1.34-.1c.08-.8.16-1.6.26-2.41a8.49,8.49,0,0,1,1.34.2A1.11,1.11,0,0,1,52.2,78.07Zm2.18,1.12-1.83,0c0-.77,0-1.52,0-2.28.59,0,1.14,0,1.71,0,.09.11,0,.25.08.38l-1.29,0v.51c.4,0,.8,0,1.2,0,0,.13,0,.25,0,.38-.39,0-.78,0-1.17,0a3.42,3.42,0,0,0,0,.64c.44,0,.88,0,1.34,0Zm3.08-.71a1.38,1.38,0,0,1-1.14.27c-.27-.06-.42-.31-.55-.52l.43-.17c.15.19.36.39.62.29s.54-.35.29-.56-.82,0-1.19-.14a.61.61,0,0,1-.19-.93,1.32,1.32,0,0,1,1-.35.76.76,0,0,1,.59.48l-.4.14a1.32,1.32,0,0,0-.32-.2A.82.82,0,0,0,56,77a2,2,0,0,1,0,.26c.37.1.76,0,1.13.1A.68.68,0,0,1,57.46,78.48Zm2.3-1-.4-.36-.85.39a4.41,4.41,0,0,1,0,.52c-.09.15-.3.16-.43.26-.07-.84-.14-1.67-.17-2.51l.44-.19c.64.56,1.26,1.13,1.86,1.7C60.08,77.39,59.94,77.54,59.76,77.52Zm1.94-1.1c-.47-.21-.91-.5-1.39-.7.16.39.45.73.61,1.12-.07.13-.23.14-.34.19-.32-.61-.75-1.2-1-1.83a1.19,1.19,0,0,1,.4-.14c.48.22.9.51,1.4.7a7.28,7.28,0,0,1-.62-1.21c.12,0,.3-.19.38,0,.32.58.71,1.13,1,1.74A1.68,1.68,0,0,1,61.7,76.42Zm1.34-1c-.33-.42-.65-.84-1-1.27-.17.11-.33.22-.49.31s-.2-.15-.27-.23c.49-.32.92-.7,1.43-1a2.79,2.79,0,0,0,.16.28c-.16.12-.34.24-.49.37.34.47.73.91,1.06,1.4C63.35,75.3,63.17,75.56,63,75.37Zm2.22-1.7c-.18,0-.33-.12-.52-.16-.2.18-.4.38-.61.56a1.61,1.61,0,0,1,.18.52l-.29.26c-.33-.67-.63-1.36-.94-2,.11-.1.2-.25.35-.3.72.28,1.43.58,2.13.87A1.64,1.64,0,0,1,65.26,73.67Zm1.27-1.34A1.26,1.26,0,0,1,65,71.55a1,1,0,0,1,1.25-1.16c0,.12-.11.24-.17.37-.24,0-.55,0-.66.23s.18.72.47.9a.55.55,0,0,0,.78-.12c.13-.19,0-.41-.07-.6l.36-.2A.89.89,0,0,1,66.53,72.33Zm1.85-2.61c-.42.08-1.07-.14-1.27.37a6.31,6.31,0,0,1,.71.42c0,.13-.1.25-.14.35a3.18,3.18,0,0,1-.73-.38c-.38-.24-.77-.46-1.16-.72.26-.34.47-.74.75-1.06a.61.61,0,0,1,.9.1c.13.16.09.38.1.57a5.61,5.61,0,0,1,1.16-.07A2.12,2.12,0,0,1,68.38,69.72Zm0-.94c-.48-.23-.92-.54-1.36-.8.08-.11.11-.27.26-.33.43.23.83.54,1.3.74.29.12.59-.22.53-.5s-.26-.26-.41-.36l-1-.61c.08-.11.16-.22.24-.35.43.28.88.52,1.31.81C70,67.84,69.11,69.15,68.34,68.78Zm2.31-3a15.79,15.79,0,0,0-.75,1.48c-.14-.09-.34-.13-.41-.29-.28-.47-.49-1-.77-1.41-.15.28-.29.57-.44.86-.08-.06-.23-.08-.27-.19.16-.47.41-.9.62-1.36.14.08.33.13.39.29.26.49.49,1,.77,1.46.18-.34.34-.68.49-1l.37.07Z"></path>
  <path id="Fill-1" class="cls-1" d="M57.73,8a8.32,8.32,0,0,0-.85,0A15.61,15.61,0,0,1,59.1,10c-1.55.17-2.35.74-2.65,1.58l5.86.76s0,0,.07,0a1.66,1.66,0,0,1,.42.09,1.86,1.86,0,0,1,.33,0,3.35,3.35,0,0,0-.77-.19h0l-.06,0-5.62-.73,0-.12h0l.18-.07A5.66,5.66,0,0,1,58.63,11a11.38,11.38,0,0,1,3.31.6,22.44,22.44,0,0,1-2.23-1.21l-.51-.32,0,0a.15.15,0,0,0,0-.14,9.77,9.77,0,0,0-1-1l-.86-.69.45.17a28.25,28.25,0,0,1,6.87,4,7,7,0,0,1,1,.23,8.07,8.07,0,0,1-1.36-1.91C62.29,9.16,60.6,8,57.73,8"></path>
  <path id="Fill-2" class="cls-1" d="M69.1,14.73l-.22-.1c-1.37-.63-6-2.56-6.55-2.48l-.06,0-5.62-.73,0-.12h0l.18-.07a8.36,8.36,0,0,1,5.06.34,22.44,22.44,0,0,1-2.23-1.21l-.51-.32,0,0a.15.15,0,0,0,0-.14,9.77,9.77,0,0,0-1-1l-.86-.69.45.17A28.25,28.25,0,0,1,65,12.72c1.08.44,2.19.9,3.32,1.3h0l.8.5-.07.2"></path>
  <path id="Fill-4" class="cls-1" d="M64.62,12.41l.39.31,1.16.47a7.54,7.54,0,0,1-.59-.55,7,7,0,0,0-1-.23m-1.49-.07a1.86,1.86,0,0,0-.33,0c.87.25,2.76,1,4.25,1.61l.15,0-.31-.23c-1.3-.54-2.83-1.14-3.76-1.44"></path>
  <path id="Fill-5" class="cls-1" d="M63.6,12.32l-.47,0c.93.3,2.46.9,3.76,1.44-.25-.19-.49-.39-.72-.59L65,12.72l-.39-.31a6,6,0,0,0-1-.09"></path>
  <path id="Fill-7" class="cls-1" d="M68,14.45l-.17.05a15.59,15.59,0,0,1,2.8,2.61l.22.06-.09-.12A15.33,15.33,0,0,0,68,14.45M63.13,7.5a13.91,13.91,0,0,0,1.09,3.23l.26.2a10.9,10.9,0,0,1-.91-2.28l-.2-.73,5.32,6.16.63.38-.08.25,2.3,2.68.33.13a52.67,52.67,0,0,1-3-5,31.1,31.1,0,0,0-5.72-5"></path>
  <path id="Fill-8" class="cls-1" d="M68.69,14.08l.28.32.2.13,0,.07.1.11.08-.25-.63-.38m-4.47-3.35a8.07,8.07,0,0,0,1.36,1.91l.29.1a7,7,0,0,1-1.39-1.81l-.26-.2"></path>
  <path id="Fill-9" class="cls-1" d="M69,14.4l.17.2,0-.07L69,14.4"></path>
  <path id="Fill-10" class="cls-1" d="M66.89,13.78l.31.23.31,0L67.44,14l-.55-.22m-1.31-1.14a7.54,7.54,0,0,0,.59.55l.41.17c-.24-.2-.48-.4-.71-.62l-.29-.1"></path>
  <path id="Fill-11" class="cls-1" d="M66.17,13.19c.23.2.47.4.72.59l.55.22-.86-.64-.41-.17"></path>
  <path id="Fill-12" class="cls-1" d="M68,14.39l-.17.06.09.05.17-.05L68,14.39"></path>
  <path id="Fill-13" class="cls-1" d="M67.2,14c.19.14.39.28.58.44l.17-.06-.44-.34-.31,0"></path>
  <path id="Fill-14" class="cls-1" d="M71.41,17.85l-.61-.8c-3.12-3.81-5.72-3.25-7.23-8.4l-.2-.73,8.4,9.73-.36.2"></path>
  <path id="Fill-15" class="cls-1" d="M75.82,22.08c.19.33.39.63.6.93a5.32,5.32,0,0,1,.46.37l-.12-.13a10.8,10.8,0,0,1-.8-1.16h-.14M72.37,11.94c.31,1.06.6,2.13.89,3.2l.2.28s0-.07,0-.11l-.74-2.7.36.84c1.1,2.58,2.18,5.2,3.21,7.89.17.23.32.47.48.73h-.2L77,23.36v.14l.12.11v-.56c-.41-1.36-.78-2.79-1.18-4.18q.42.43.81.9a16,16,0,0,0-4.39-7.83"></path>
  <path id="Fill-16" class="cls-1" d="M77,23.53l-.25-.28c-1.56-1.93-2.47-4.85-3.34-7.94l-.74-2.7.36.84c1.16,2.71,2.29,5.47,3.36,8.31l.61,1.6v.17"></path>
  <path id="Fill-17" class="cls-1" d="M68.4,11.72l.45.77.3.34-.45-.78.64.74c1.65,1.94,3.27,3.94,4.86,6.07l.35.46h0c-.49-1.3-.91-2.74-1.31-4.19a9.92,9.92,0,0,0-4.86-3.42"></path>
  <path id="Fill-18" class="cls-1" d="M68.85,12.49a52.67,52.67,0,0,0,3,5l.18.08a30.72,30.72,0,0,1-2-3.19l-.89-1.58-.3-.34"></path>
  <path id="Fill-19" class="cls-1" d="M73.26,15.14c.4,1.45.82,2.89,1.31,4.19l.19.2c-.49-1.28-.9-2.68-1.3-4.11l-.2-.28"></path>
  <path id="Fill-20" class="cls-1" d="M73.46,15.42c.4,1.43.81,2.83,1.3,4.11q.22.22.45.48a12.1,12.1,0,0,0-1.75-4.59"></path>
  <path id="Fill-21" class="cls-1" d="M75.16,20.29l-.36-.16c-1.89-.95-3.33-3.23-4.76-5.72L68.7,12.05l.64.74c1.65,1.94,3.27,3.94,4.86,6.07l.92,1.24,0,.19"></path>
  <path id="Fill-22" class="cls-1" d="M68.2,16.82c-.48,0-1,0-1.42.07,3.08,2.25,6.14,4.95,9,5.19L75.76,22c-2.1-.19-4.28-1.69-6.53-3.37l-2-1.52.88.42c2.32,1.1,4.65,2.26,7,3.56l.28.15c-.14-.28-.28-.58-.4-.88a7.93,7.93,0,0,1-3-2.63l-.63.34c-.24-.33-.47-.64-.7-.92a9.87,9.87,0,0,0-2.47-.29"></path>
  <path id="Fill-23" class="cls-1" d="M70.67,17.11c.23.28.46.59.7.92l.63-.34-.13-.17-.33-.13.23.26-.36.2-.52-.68-.22-.06"></path>
  <path id="Fill-24" class="cls-1" d="M70.89,17.17l.52.68.36-.2-.23-.26a5,5,0,0,0-.65-.22"></path>
  <path id="Fill-25" class="cls-1" d="M75.76,22l.06.12H76L75.9,22h-.14m.49-.62a3.52,3.52,0,0,1,.15.42l0,0h0l.1.15h0l0,.12h.2c-.16-.26-.31-.5-.48-.73m-1.29-1c.12.3.26.6.4.88l.17.1c-.15-.3-.29-.6-.42-.92L75,20.32"></path>
  <path id="Fill-26" class="cls-1" d="M76.49,22l-.36,0-.23,0,.06.12h.57l0-.12M75.21,20c0,.15.05.29.08.44l-.18-.07c.13.32.27.62.42.92l.9.51,0,0a3.52,3.52,0,0,0-.15-.42,15,15,0,0,0-1-1.33"></path>
  <path id="Fill-27" class="cls-1" d="M72.09,17.64l-.09.05a7.93,7.93,0,0,0,3,2.63l-.07-.15-.09,0a8,8,0,0,1-2.71-2.49"></path>
  <path id="Fill-28" class="cls-1" d="M71.87,17.52l.13.17.09-.05,0,0-.18-.08"></path>
  <path id="Fill-29" class="cls-1" d="M74.55,19.32l0,0v0h0"></path>
  <path id="Fill-30" class="cls-1" d="M74.89,20.17l.07.15.15.06a.69.69,0,0,1-.07-.15l-.15-.06m-.32-.84v0l.25.34-.06-.16-.19-.2"></path>
  <path id="Fill-31" class="cls-1" d="M74.76,19.53l.06.16.3.41,0,.19L75,20.23a.69.69,0,0,0,.07.15l.18.07c0-.15-.05-.29-.08-.44s-.3-.33-.45-.48"></path>
  <path id="Fill-33" class="cls-1" d="M69.23,18.59l-2-1.52.88.42c2.32,1.1,4.65,2.26,7,3.56l1.35.76.1.15-.4,0c-2.21,0-4.52-1.63-6.9-3.4"></path>
  <path id="Fill-34" class="cls-1" d="M77.11,22.67c0,.12,0,.25,0,.38s.16.54.24.81l.15.16c-.14-.43-.28-.89-.41-1.35m-.35-2.9A14.15,14.15,0,0,1,77,21.31c.66,1.57,1.31,3.15,1.95,4.77,0,.1.1.19.15.29a16.36,16.36,0,0,1-.29-3.46,14.09,14.09,0,0,0-2.06-3.14"></path>
  <path id="Fill-35" class="cls-1" d="M76,18.87c.4,1.39.77,2.82,1.18,4.18,0-.13,0-.26,0-.38-.08-.3-.17-.6-.25-.9l-.65-2.32.32.72L77,21.31a14.15,14.15,0,0,0-.25-1.54q-.39-.46-.81-.9"></path>
  <path id="Fill-38" class="cls-1" d="M78.62,19.08c0,1.33.87,5.74,1.09,8.07l.13,1.35-.06.15,0,0a.86.86,0,0,1,0,.16l0,.06c1.74-4.39.65-7.27-1.18-9.76"></path>
  <path id="Fill-40" class="cls-1" d="M79.82,28.81l-.19-.3c-.95-1.62-1-4-.95-6.5l.06-2.38.14.86c.34,2.22.64,4.48.88,6.81l.12,1.36-.06.15"></path>
  <path id="Fill-41" class="cls-1" d="M72,20.21c2.54,3.24,3.79,4.81,2,2.49l-1.68-2.2.75.66c1.93,1.73,3.7,3.6,5.6,5.52l.3.07c-.4-.69.3-1.5.19-2.4-.06-.52-.9-1.09-1.07-1.6-.07-.08-1.93-3.55-2-3.63,0,.08-1.91-.63,1.07,3.85-.24-.26-.47-.54-.69-.83A10.51,10.51,0,0,0,72,20.21"></path>
  <path id="Fill-42" class="cls-1" d="M76.42,23c.23.29.46.57.7.82,0-.07,0-.15,0-.22L77,23.5v0l-.13-.15a5.32,5.32,0,0,0-.46-.37"></path>
  <path id="Fill-43" class="cls-1" d="M76.88,23.38l.13.15v0l-.13-.12"></path>
  <path id="Fill-48" class="cls-1" d="M79.16,26.61a6,6,0,0,0,.59,1.55l-.32-.86-.27-.69"></path>
  <path id="Fill-49" class="cls-1" d="M79.27,26.73a6.56,6.56,0,0,0,.59,1.46,15.3,15.3,0,0,0-.59-1.46"></path>
  <path id="Fill-50" class="cls-1" d="M80.14,27.74l-.34,1.1c-2-.67-4.06-3.9-5.84-6.22l-1.67-2.2.75.66c1.93,1.72,3.84,3.51,5.74,5.42l1.1,1.13.05.18"></path>
  <path id="Fill-51" class="cls-1" d="M82.14,25.84a9.37,9.37,0,0,1-.45,3l.09.19a12.49,12.49,0,0,0,.5-2.64v-.22l.2.19,0,0,.1.52c.27,1.65.07,3.34.39,5.13a5.6,5.6,0,0,1,1.1-2.19,5.48,5.48,0,0,0-2-4"></path>
  <path id="Fill-52" class="cls-1" d="M83.28,33.17,83,32.93c-2.58-2.35-.76-4.09-.71-6.57v-.22l.2.19,0,0,.1.52c.32,1.95,0,4,.62,6.12l.06.18"></path>
  <path id="Fill-53" class="cls-1" d="M82.88,37.11c-2.1-1.24-2.76-3.19-2.75-5.47v-.7c0-.69.15-1.43.28-2.18l.14-.68.17-.67,0,0,.29,2.28a40.77,40.77,0,0,0,1.82,7.4m-2.18-10A14.12,14.12,0,0,0,80,31.49a4.79,4.79,0,0,0-3.47-1.41c3.55,3,1.08,5.06,6.46,9.53l.85,2.82c.13.28.26.56.38.84l-1.11-3.7,0-.07c-5.08-4.22-3.11-6.2-5.85-9l-.3-.28.3,0,.23.11c2.48,1.63,3.37,6.53,6.2,8.91l.78,4.18-.13,0c.05.09.08.18.12.27.08-.87.21-1.75.34-2.65a18.61,18.61,0,0,1-.29-4.9c1.56-3.3.44-4.63.76-7.59a8,8,0,0,0-1.16,1.23V30l.46-.57.55-.52-.33,1a50.61,50.61,0,0,0-1.45,8.57,12.05,12.05,0,0,1-.58-5.64,3.7,3.7,0,0,1-1-4.06,19.38,19.38,0,0,0-1-1.73"></path>
  <path id="Fill-54" class="cls-1" d="M84.09,29.81A5.6,5.6,0,0,0,83,32c0,.1,0,.2.06.3a.43.43,0,0,0,0,0,5.56,5.56,0,0,1,1-2.24v-.2m-2.4-1a3.7,3.7,0,0,0,1,4.06.8.8,0,0,1,0-.15,3.46,3.46,0,0,1-1-3.72l-.09-.19"></path>
  <path id="Fill-55" class="cls-1" d="M81.78,29a3.46,3.46,0,0,0,1,3.72c0-.13,0-.25.09-.37v0h0a.08.08,0,0,0,.07,0,.14.14,0,0,0,.11-.06c0-.1,0-.2-.06-.3a1.55,1.55,0,0,0,0,.23A14.56,14.56,0,0,0,81.78,29"></path>
  <path id="Fill-56" class="cls-1" d="M84.45,43.49l-.15-.05-1.16-3.87,0-.07c-5.08-4.22-3.11-6.2-5.85-9l-.3-.28.3,0,.23.11c2.48,1.63,3.37,6.53,6.2,8.91l.78,4.18M82.86,32.33h0a.11.11,0,0,0,.19-.08,6,6,0,0,1,1.49-2.81l.55-.52-.33,1a50.61,50.61,0,0,0-1.45,8.57,11.24,11.24,0,0,1-.46-6.16v0m-2.72-.78v-.61c0-.69.15-1.43.28-2.18l.14-.68.17-.67,0,0,.29,2.28a40.77,40.77,0,0,0,1.82,7.4c-2.1-1.24-2.76-3.19-2.75-5.47v-.09"></path>
  <path id="Fill-57" class="cls-1" d="M85,52.34a4,4,0,0,0,0,.49l.12.51s0,0,0-.05c0-.23,0-.46,0-.7L85,52.34m3.93-15.09c-.47,1.43-1,2.87-1.46,4.29,0,.08,0,.17,0,.24l1.37-4,.06.3-.08,1.43a61.34,61.34,0,0,1-1.33,9.39,3.77,3.77,0,0,1,.66-.7,23.56,23.56,0,0,0-1.08,4.42c3-5.16,2.87-10.26,1.81-15.34"></path>
  <path id="Fill-58" class="cls-1" d="M85.31,55l-.13-.73c-.47-3.7.76-7.89,2.22-12.2l1.45-4.28.06.3-.08,1.43a62.09,62.09,0,0,1-2.15,12.73l-.43,1.45-.26.39-.68.91"></path>
  <path id="Fill-60" class="cls-1" d="M86.41,49.43c0,.1-.09.19-.14.29l0,0a2.83,2.83,0,0,0,.11-.31"></path>
  <path id="Fill-62" class="cls-1" d="M84.57,43.64l-.13.09c0,.09.07.17.1.25l0-.34m.89-6.83c-.21,1.41-.46,2.85-.68,4.26,0,.13,0,.27.07.4,0-.23.07-.47.11-.7l.54-3.42.06,1.3c.09,2.52.14,5.07.12,7.66a3.09,3.09,0,0,1,.17.29c.44-1.66,1-3.35,1.58-5.06a16.66,16.66,0,0,0-2-4.73"></path>
  <path id="Fill-63" class="cls-1" d="M84.78,41.07c-.13.9-.26,1.78-.34,2.65h0l.13-.09c.07-.71.17-1.44.28-2.17,0-.13,0-.27-.07-.4"></path>
  <path id="Fill-64" class="cls-1" d="M87.43,41.54c-.58,1.71-1.14,3.4-1.58,5.06l.09.16c.41-1.55.92-3.12,1.46-4.73l.08-.25c0-.07,0-.16,0-.24"></path>
  <path id="Fill-65" class="cls-1" d="M85.72,49.18c0,.46.06.94.07,1.44l.48-.9-.55-.54m1.76-7.4L87.4,42c-.54,1.61-1.05,3.18-1.46,4.73a3.6,3.6,0,0,1,.47,2.67,11.81,11.81,0,0,0,1.07-7.65"></path>
  <path id="Fill-66" class="cls-1" d="M85.68,46.31v1c0-.22.11-.46.17-.69a3.09,3.09,0,0,0-.17-.29"></path>
  <path id="Fill-67" class="cls-1" d="M85.85,46.6c-.06.23-.12.47-.17.69s0,.4,0,.59c.08-.37.18-.74.27-1.12l-.09-.16"></path>
  <path id="Fill-68" class="cls-1" d="M85.94,46.76c-.09.38-.19.75-.27,1.12v.38l.65,1-.08.26L85.7,49c0,.07,0,.15,0,.22l.55.54c0-.1.1-.19.14-.29a3.6,3.6,0,0,0-.47-2.67"></path>
  <path id="Fill-69" class="cls-1" d="M85.67,48.26a2.35,2.35,0,0,0,0,.26c0,.14,0,.29,0,.44l.54.54.08-.26-.65-1"></path>
  <path id="Fill-70" class="cls-1" d="M85.48,50.88l-.26-.51c-1.19-2.61-.83-6-.26-9.6l.54-3.42.06,1.3c.12,3.3.17,6.63.09,10l-.06,2-.11.19"></path>
  <path id="Fill-76" class="cls-1" d="M85.08,52.31v.28c0,.12.12.24.17.34a.91.91,0,0,0,.07-.14l-.24-.48m.71-1.69-.31.52a4.35,4.35,0,0,1-.29-.52c0,.15,0,.3,0,.45s0,.06,0,.09l.29,1.33c.1-.22.21-.43.31-.63,0-.43,0-.84,0-1.24"></path>
  <path id="Fill-79" class="cls-1" d="M84.44,43.73h0c0,.26,0,.52-.07.77l.12.14c0-.23,0-.45.05-.67s-.07-.16-.1-.25"></path>
  <path id="Fill-80" class="cls-1" d="M84.44,43.72v0h0"></path>
  <path id="Fill-81" class="cls-1" d="M84.4,47.78c0,.06,0,.12,0,.17.16.63.3,1.26.45,1.9.06.19.14.37.22.56a2.42,2.42,0,0,0,0-.25A9.31,9.31,0,0,1,84.55,48l-.15-.17"></path>
  <path id="Fill-82" class="cls-1" d="M85.12,50.16a2.42,2.42,0,0,1,0,.25,2,2,0,0,1,.1.21l0-.24h0l-.1-.21"></path>
  <path id="Fill-83" class="cls-1" d="M85.64,49.1l0,1.59-.11.19-.26-.5,0,.24a4.35,4.35,0,0,0,.29.52l.31-.52c0-.5,0-1-.07-1.44l-.08-.08"></path>
  <path id="Fill-84" class="cls-1" d="M84.38,47.56c0,.07,0,.14,0,.22l.15.17,0-.23-.14-.16m0-3.05c-.05.58-.06,1.15-.06,1.72l.13.19a15.07,15.07,0,0,1,0-1.77l-.12-.14"></path>
  <path id="Fill-85" class="cls-1" d="M85.65,48.91v.19l.08.08c0-.07,0-.15,0-.22l0-.05"></path>
  <path id="Fill-86" class="cls-1" d="M85.66,48.52a1,1,0,0,1,0,.17v.22l0,.05c0-.15,0-.3,0-.44m-1.35-2.29a11.61,11.61,0,0,0,.07,1.33l.14.16a11.2,11.2,0,0,1-.08-1.3l-.13-.19"></path>
  <path id="Fill-87" class="cls-1" d="M84.54,44c0,.22,0,.44-.05.67a15.07,15.07,0,0,0,0,1.77,11.2,11.2,0,0,0,.08,1.3l0,.23a9.31,9.31,0,0,0,.57,2.21l.1.21h0l.26.5.11-.19.06-1.78v-.22a1,1,0,0,0,0-.17A18.41,18.41,0,0,0,84.54,44"></path>
  <path id="Fill-89" class="cls-1" d="M89.37,50.47A12.55,12.55,0,0,0,86.9,54c0,.18,0,.35-.05.52a13.48,13.48,0,0,1,2.06-3.28l0,0L86.46,59c-.14,1.65-.3,3.38-.59,5.21,2.23-2.75,2.44-9.48,3.5-13.75"></path>
  <path id="Fill-90" class="cls-1" d="M84.49,65l0-1.8c.67-4.77,2.06-9.31,4.44-12l0,0L85.37,64.1l-.61.87"></path>
  <path id="Fill-91" class="cls-1" d="M87.08,52.59a17.66,17.66,0,0,1-1,1.55c-.24,1.3-.44,2.58-.69,3.83a23.47,23.47,0,0,1,1.51-4c0-.45.11-.91.18-1.36"></path>
  <path id="Fill-92" class="cls-1" d="M88.16,48.17a3.77,3.77,0,0,0-.66.7c0,.09-.14.66-.14.66-.21.9-.43,1.79-.68,2.68l-.43,1.45-.11.16a3,3,0,0,1-.06.32,17.66,17.66,0,0,0,1-1.55,23.56,23.56,0,0,1,1.08-4.42"></path>
  <path id="Fill-93" class="cls-1" d="M87.36,49.53l-.09.19a24.35,24.35,0,0,0-1.13,4.1l.11-.16.43-1.45c.25-.89.47-1.78.68-2.68m.14-.66a12.74,12.74,0,0,0-1,1.66,14.29,14.29,0,0,1,1-1.41,1.84,1.84,0,0,0,0-.25"></path>
  <path id="Fill-94" class="cls-1" d="M81.92,49.88c1.46,1.32,2.39,7.8,3,13.89.13-1.14.3-2.27.51-3.37-.1.38-.21.76-.34,1.13a13.28,13.28,0,0,1-.43-1.79l-.06-.41,0,0V59.2a12.56,12.56,0,0,1,.88-5c0-.23,0-.46,0-.69a4.34,4.34,0,0,0-3.54-3.62m-.33-.05c1.12,1.63.43,6.26,1.15,8.56,1,2.56,1.83,4.25,2.06,6.22,0-.14,0-.29,0-.43a31.17,31.17,0,0,0-2-5.84c-.27-1.64-.22.16-.5-4.73A20.46,20.46,0,0,0,81.87,50l-.08-.13-.2,0"></path>
  <path id="Fill-95" class="cls-1" d="M85,52.83q0,.36,0,.72l.09-.21L85,52.83"></path>
  <path id="Fill-97" class="cls-1" d="M86.46,59l-1.91,6-.14.06a1.65,1.65,0,0,0,0,.21,3.26,3.26,0,0,0,1.44-1.08c.29-1.83.45-3.56.59-5.21M86.9,54a23.47,23.47,0,0,0-1.51,4c-.15.7-.32,1.39-.53,2.07-.25,1.15-.3,3.07-.46,4.26.07.61.3-1.24.3-1.24a30.38,30.38,0,0,1,2.15-8.59c0-.17,0-.34.05-.52"></path>
  <path id="Fill-99" class="cls-1" d="M84.43,65.3c-.07-3.29-.18-3.2-1.61-7-.27-1.64-.22.16-.5-4.73a20.44,20.44,0,0,0-.53-3.75l.52.17c1.87,1,2.26,7.27,2.81,14.35v.38m-.57-5.43,0,0V59.2c-.31-2.63,1.61-7.37,3-9.38l.1-.14-.34.85c-1.24,3.78-1.15,7.6-2.3,11a13.28,13.28,0,0,1-.43-1.79l-.06-.41"></path>
  <path id="Fill-100" class="cls-1" d="M40.22,96.27c1.11.87-.47,1.09,1.3,1.6,2-1.26,1-1.91-1.3-1.6"></path>
  <path id="Fill-101" class="cls-1" d="M86.86,65.77,85.42,67c0,.06,0,.12,0,.18l1.23-1.06-.57.84c-.21.32-.43.62-.64.93a3.56,3.56,0,0,0,.09.57l-.43-.09c-.35.49-.7,1-1.07,1.48-.07.2-.14.39-.22.59.92-.73,1.87-1.47,2.85-2.21a16.23,16.23,0,0,0,.21-2.47"></path>
  <path id="Fill-102" class="cls-1" d="M85.43,67.9l-.34.48.43.09a3.56,3.56,0,0,1-.09-.57m0-.89-.69.59-.07.22.75-.63c0-.06,0-.12,0-.18"></path>
  <path id="Fill-103" class="cls-1" d="M80.28,74.44l0-.51c.31-2.4,2.18-4.23,4.28-6.05l2-1.75-.57.84c-1.45,2.11-3,4.2-4.63,6.25l-1,1.17-.19,0"></path>
  <path id="Fill-105" class="cls-1" d="M80.26,73.52a2.07,2.07,0,0,0,0,.22,1.54,1.54,0,0,0,0-.17.09.09,0,0,1,0,0"></path>
  <path id="Fill-107" class="cls-1" d="M80.21,73.77a12.29,12.29,0,0,1-2.63,5.15,2.76,2.76,0,0,0-.08.27,11.4,11.4,0,0,0,2.65-4.81c0-.2,0-.4.06-.59v0M88,67.24c-.45.32-.9.66-1.34,1a1.29,1.29,0,0,0,0,.19l1.11-.83,0,.08-.13.12c-.37.37-.71.72-1,1.08a6.85,6.85,0,0,1-3.72,4.84c-.1.14-.19.29-.28.44a16.89,16.89,0,0,1-.88,1.94l-.22-.21-.18.28.17-.31a5,5,0,0,1-.9-1.34l-.07,0a22.8,22.8,0,0,1-3.31,5.76l0,0c.76-.38,1.59-.73,2.43-1.06a22.92,22.92,0,0,0,8.45-12m-3.88-.46a19.16,19.16,0,0,0-1.37,2.33c0,.08.05.16.07.23.4-.4.83-.79,1.27-1.18l-.24,0a12.56,12.56,0,0,0,.27-1.33m.09-1.09A9.12,9.12,0,0,0,82.3,68a1,1,0,0,0,.07.15,8.74,8.74,0,0,1,1.83-2.29v-.18"></path>
  <path id="Fill-108" class="cls-1" d="M84.26,66.57c-.05.06-.1.14-.15.21a12.56,12.56,0,0,1-.27,1.33l.24,0,.12-.11L84,68l.14-.62a6.18,6.18,0,0,0,.13-.81m.07-1-.13.09v.18l.13-.1V65.6m1-.5a2.74,2.74,0,0,0-.86.42.71.71,0,0,1,0,.14l.23-.14.44-.19-.06.23-.26.3-.3.36c0,.27.06.54.08.79l0,.73.16-.14c.22-.83.4-1.66.58-2.5"></path>
  <path id="Fill-109" class="cls-1" d="M84.51,66.22l-.25.35a6.18,6.18,0,0,1-.13.81L84,68l.21,0,.37-.31,0-.73c0-.25,0-.52-.08-.79m-.06-.7-.12.08v.17l.13-.11a.71.71,0,0,0,0-.14"></path>
  <path id="Fill-110" class="cls-1" d="M86.52,68.88a32.24,32.24,0,0,0-3.72,4.84,6.85,6.85,0,0,0,3.72-4.84m.13-.64c-1,.74-1.93,1.48-2.85,2.21.08-.2.15-.39.22-.59q-.47.65-1,1.29a7.55,7.55,0,0,1-.17,1.66c.14-.31.27-.62.39-.94l.46-1.31.05,0,.08,0,2-1.61.69-.52a1.29,1.29,0,0,1,0-.19"></path>
  <path id="Fill-111" class="cls-1" d="M84.73,67.6l-.16.14v.18l0,0,.06-.06.07-.22"></path>
  <path id="Fill-112" class="cls-1" d="M84.08,68.16c-.44.39-.87.78-1.27,1.18,0,0,0,.1,0,.15.43-.44.91-.87,1.39-1.3l-.16,0"></path>
  <path id="Fill-113" class="cls-1" d="M84.2,68.05l-.12.11.16,0a1.27,1.27,0,0,0,.13-.11l-.17,0"></path>
  <path id="Fill-114" class="cls-1" d="M80.48,74.46l0,.08.07,0s0,0,0-.06m-.27-.67c0,.19,0,.39-.06.59,0-.14.09-.27.13-.4a1.07,1.07,0,0,0-.07-.19"></path>
  <path id="Fill-115" class="cls-1" d="M84.57,67.74l-.37.31.17,0,.19-.16v-.18"></path>
  <path id="Fill-116" class="cls-1" d="M84.66,67.82l-.06.06,0,0-.19.16a1.27,1.27,0,0,1-.13.11c-.48.43-1,.86-1.39,1.3a6.86,6.86,0,0,1,.21,1.66q.5-.65,1-1.29c.25-.68.46-1.36.64-2"></path>
  <path id="Fill-117" class="cls-1" d="M80.22,73.74a.1.1,0,0,1,0,0v0a.09.09,0,0,0,0-.05m2.52-4.63c-.1.2-.2.41-.29.61l.36-.38c0-.07,0-.15-.07-.23M82.3,68a12.06,12.06,0,0,0-1.22,2.73.74.74,0,0,0,0,.14c0,.09,0,.2,0,.29,0-.13.07-.26.11-.39a11.39,11.39,0,0,1,1.17-2.62A1,1,0,0,1,82.3,68"></path>
  <path id="Fill-118" class="cls-1" d="M80.27,73.57a1.54,1.54,0,0,1,0,.17.09.09,0,0,1,0,.05,1.07,1.07,0,0,1,.07.19l.06-.21c0-.06,0-.13-.07-.2m2.54-4.23-.36.38-.19.39.59-.62s0-.1,0-.15"></path>
  <path id="Fill-119" class="cls-1" d="M80.64,74.49a.31.31,0,0,1-.13,0,5,5,0,0,0,.9,1.34.83.83,0,0,1,.07-.13l-.19-.21a4.59,4.59,0,0,1-.65-1m1.88-.33-.85,1.33,0,.21-.08.18-.11-.12-.08.13.22.21a16.89,16.89,0,0,0,.88-1.94m-.13-.25a8.78,8.78,0,0,1-.87.33l.14,1.15c.25-.5.5-1,.73-1.48"></path>
  <path id="Fill-120" class="cls-1" d="M80.54,74.3a1.66,1.66,0,0,1-.06.16s0,0,0,.06a.31.31,0,0,0,.13,0,1.74,1.74,0,0,1-.1-.19m2.52-3.15q-.8,1-1.62,2.07l0,0c0,.3.08.59.11.88v.1a8.78,8.78,0,0,0,.87-.33c.18-.37.35-.74.5-1.1a7.55,7.55,0,0,0,.17-1.66"></path>
  <path id="Fill-121" class="cls-1" d="M82.85,69.49l-.59.62c-.34.78-.66,1.56-1,2.36,0,.26.07.53.11.79l0,0q.82-1,1.62-2.07a6.86,6.86,0,0,0-.21-1.66"></path>
  <path id="Fill-122" class="cls-1" d="M81.67,75.49l-.17.27.11.12.08-.18,0-.21m-.38-3c-.25.6-.49,1.22-.75,1.83a1.74,1.74,0,0,0,.1.19,4.59,4.59,0,0,0,.65,1l.19.21.18-.34-.15-1.25c0-.29-.07-.58-.11-.88s-.07-.53-.11-.79M81,70.88c-.27,1-.51,1.85-.77,2.69,0,.07,0,.14.07.2.25-.81.49-1.68.75-2.6,0-.09,0-.2,0-.29"></path>
  <path id="Fill-123" class="cls-1" d="M76.93,80.53l-.22-.65.34-.28c2.48-2.17,3.07-5.06,4.15-8.82.52-1.81,2-4.36,3.49-5.26l.44-.19-.06.23-.26.3c-3.62,4.42-3.72,9.72-7.88,14.67m6.81-10,.05,0,.08,0,2-1.61,1.8-1.35,0,.08-.13.12a40.66,40.66,0,0,0-6.32,8.37,42.82,42.82,0,0,0,2-4.3l.46-1.31"></path>
  <path id="Fill-124" class="cls-1" d="M83,77.05c-1,.39-2,.75-2.94,1.12l-.44.33.56-.22,2.49-1-.79.61q-2.58,1.91-5.32,3.68a11.58,11.58,0,0,1-1.13,1.69h.21c4.28,0,6.16-2.74,7.36-6.25"></path>
  <path id="Fill-125" class="cls-1" d="M79.54,79.27c-.84.33-1.67.68-2.43,1.06a1.07,1.07,0,0,1-.07.19c.65-.33,1.34-.63,2-.92.15-.11.3-.21.45-.33"></path>
  <path id="Fill-126" class="cls-1" d="M74.15,83.06l-.31,0L74,83l.19-.47c1-2.2,3.39-3.3,6-4.29l2.49-1-.79.61c-2,1.51-4.16,3-6.37,4.35l-1.31.78"></path>
  <path id="Fill-127" class="cls-1" d="M75.54,75.7c-1.94,3.15-4.42,6.24-4.21,9.41l.12-.11c-.11-2.21,1.1-4.37,2.5-6.58l1.48-2.31-.31,1c-.69,2.09-1.43,4.17-2.26,6.25l3.2-3.85a13.35,13.35,0,0,0-.52-3.79"></path>
  <path id="Fill-128" class="cls-1" d="M71.6,86.05l-.1-.49c-.36-2.4.93-4.74,2.45-7.14l1.48-2.31-.31,1c-.83,2.48-1.72,5-2.74,7.43L71.76,86l-.16.1"></path>
  <path id="Fill-129" class="cls-1" d="M76.08,80.69l-.21.3s0,.06,0,.08l.33-.22-.11-.16m2-3.6-2,2.4c0,.07,0,.15,0,.22l1.73-2.09v0l-.39.8c-.23.44-.47.88-.73,1.31a10.68,10.68,0,0,0,.92-.84c.17-.61.33-1.21.48-1.83"></path>
  <path id="Fill-130" class="cls-1" d="M77.13,80.3s0,0,0,0,0,0,0,0l0,0m.45-1.38a10.68,10.68,0,0,1-.92.84c-.19.31-.38.62-.58.93l.11.16.71-.41-.19-.56.34-.28c.15-.13.31-.27.45-.41a2.76,2.76,0,0,1,.08-.27"></path>
  <path id="Fill-131" class="cls-1" d="M77.5,79.19c-.14.14-.3.28-.45.41l-.34.28.19.56.19-.1s0,0,0,0c.13-.36.25-.74.37-1.11"></path>
  <path id="Fill-132" class="cls-1" d="M71.33,85.11,67.7,88.62l.22-.05,3.42-3.29s0-.11,0-.17m2.23.84.07,0A16.79,16.79,0,0,1,78.76,84l1.45-.28h0l-.29.18a18.63,18.63,0,0,1-7.16,2.53l.69-.67,0,.08a.13.13,0,0,0,.1.06m7.09-2.41a20.44,20.44,0,0,0-7.09,2.27,10.52,10.52,0,0,0,1.35-1.41c-.28,0-.57,0-.88-.05a10.85,10.85,0,0,1-2.51,1.91c0-.06,0-.11,0-.17a31.93,31.93,0,0,1-2.88,2.38c.41,0,.81-.06,1.21-.06l.7,0,1.27-.61h0c3.61,0,6.35-1.88,8.86-4.28"></path>
  <path id="Fill-133" class="cls-1" d="M76.19,80.85l-.33.22-.06.19.47-.29-.08-.12"></path>
  <path id="Fill-134" class="cls-1" d="M77.11,80.33s0,0,0,0a1.6,1.6,0,0,1-.16.19l0-.09-.71.41.08.12c.25-.16.51-.31.77-.45a1.07,1.07,0,0,0,.07-.19"></path>
  <path id="Fill-135" class="cls-1" d="M77.09,80.34l-.19.1,0,.09a1.6,1.6,0,0,0,.16-.19"></path>
  <path id="Fill-136" class="cls-1" d="M76,82.72,75,83.39l-.27.16a7,7,0,0,1-.68.8c.31,0,.6.05.88.05A13,13,0,0,0,76,82.72"></path>
  <path id="Fill-137" class="cls-1" d="M77,80.52c-.26.14-.52.29-.77.45l-.47.29a6.59,6.59,0,0,1-1.09,2.29l.27-.16L76,82.72a16.7,16.7,0,0,0,1-2.2"></path>
  <path id="Fill-138" class="cls-1" d="M71.45,85l-.12.11c0,.06,0,.12,0,.17l.12-.11a1,1,0,0,1,0-.17m1.88-.77c-.48.52-1,1-1.48,1.51l-.09.21-.16.1V86l-.11.1c0,.06,0,.11,0,.17A10.85,10.85,0,0,0,74,84.35l-.71-.09s0,0,0,0M75.87,81l-.08.13.07-.05s0,0,0-.08m.19-1.5-3.2,3.85c0,.12-.1.26-.16.39l3.35-4c0-.07,0-.15,0-.22"></path>
  <path id="Fill-139" class="cls-1" d="M73.58,84l-.17.18h.09l.08-.19m1.13-.4-1,.61-.27,0-.08.1s0,0,0,0l.71.09a7,7,0,0,0,.68-.8m1.15-2.48-.07.05-.23.33.24-.19.06-.19"></path>
  <path id="Fill-140" class="cls-1" d="M75.8,81.26l-.24.19a30.54,30.54,0,0,1-2,2.5l-.08.19h-.09l.27,0,1-.61a6.59,6.59,0,0,0,1.09-2.29"></path>
  <path id="Fill-141" class="cls-1" d="M71.85,85.74l-.26.25v.06l.16-.1.09-.21m1-2.4-1.27,1.52-.14.14a1,1,0,0,0,0,.17l.22-.21h0l1-1.22c.06-.13.11-.27.16-.39"></path>
  <path id="Fill-142" class="cls-1" d="M67.47,89.28l-.2-.07L71.68,85h0l6.1-7.33v0l-.39.8a30.23,30.23,0,0,1-9.68,10.67l-.24.16m5.28-2.8.69-.67,0,.08a.12.12,0,0,0,.17,0A16.79,16.79,0,0,1,78.76,84l1.45-.28h0l-.29.18a18.63,18.63,0,0,1-7.16,2.53"></path>
  <path id="Fill-146" class="cls-1" d="M48.81,7.63c-3,0-4.71,1.15-6.71,2.73a7.63,7.63,0,0,1-1.4,1.93,7.56,7.56,0,0,1,1-.23A28.76,28.76,0,0,1,48.79,8l.46-.18-.9.7a11.2,11.2,0,0,0-1.05,1,.14.14,0,0,0,0,.15l0,0-.53.32a23.75,23.75,0,0,1-2.3,1.22,12.17,12.17,0,0,1,3.42-.61,5.75,5.75,0,0,1,1.81.27l.18.07h0l.06.12-5.82.74-.06,0h0a3.56,3.56,0,0,0-.79.19l.34,0a2.17,2.17,0,0,1,.44-.1s.07,0,.06.05l6.06-.78c-.31-.85-1.14-1.42-2.74-1.59a17.35,17.35,0,0,1,2.3-1.95l-.88,0"></path>
  <path id="Fill-147" class="cls-1" d="M37.07,14.4,37,14.19l.83-.49h0c1.17-.41,2.32-.88,3.43-1.31A28.8,28.8,0,0,1,48.79,8l.46-.18-.9.7a11.2,11.2,0,0,0-1.05,1,.14.14,0,0,0,0,.15l0,0-.53.32a23.75,23.75,0,0,1-2.3,1.22,8.83,8.83,0,0,1,5.23-.34l.18.07h0l.06.12-5.82.74-.06,0c-.51-.08-5.34,1.86-6.76,2.5l-.22.1"></path>
  <path id="Fill-149" class="cls-1" d="M41.7,12.06a7.56,7.56,0,0,0-1,.23,6.32,6.32,0,0,1-.6.56l1.19-.47.41-.32M43.23,12c-1,.3-2.54.91-3.88,1.45l-.32.23.15,0c1.55-.63,3.49-1.37,4.39-1.62l-.34,0"></path>
  <path id="Fill-152" class="cls-1" d="M43.23,7.1a31.92,31.92,0,0,0-5.9,5,55.83,55.83,0,0,1-3.12,5.07l.33-.13,2.39-2.69-.08-.26.64-.38L43,7.53l-.2.74a11.86,11.86,0,0,1-.94,2.3l.26-.21A13,13,0,0,0,43.23,7.1"></path>
  <path id="Fill-153" class="cls-1" d="M37.49,13.75l-.64.38.08.26.09-.12,0-.08.21-.12.28-.32m4.61-3.39-.26.21A7.39,7.39,0,0,1,40.4,12.4l.3-.11a7.63,7.63,0,0,0,1.4-1.93"></path>
  <path id="Fill-154" class="cls-1" d="M37.21,14.07l-.21.12,0,.08.19-.2"></path>
  <path id="Fill-155" class="cls-1" d="M38.17,14.12a15.45,15.45,0,0,0-2.86,2.63l-.09.11.23-.05a15.28,15.28,0,0,1,2.89-2.63l-.17-.06"></path>
  <path id="Fill-156" class="cls-1" d="M39.35,13.44l-.56.22-.07.05.31,0,.32-.23m1.35-1.15-.3.11c-.23.21-.48.41-.73.62l.43-.17a6.32,6.32,0,0,0,.6-.56"></path>
  <path id="Fill-157" class="cls-1" d="M40.1,12.85l-.43.17-.88.64.56-.22.75-.59"></path>
  <path id="Fill-158" class="cls-1" d="M38.26,14.05l-.09.07.17.06.09-.07h0l-.15-.06"></path>
  <path id="Fill-159" class="cls-1" d="M39,13.67l-.31,0-.46.34.15.06h0c.21-.15.42-.29.61-.44"></path>
  <path id="Fill-160" class="cls-1" d="M34.69,17.55l-.38-.2L43,7.53l-.2.74c-1.56,5.19-4.25,4.62-7.47,8.48l-.62.8"></path>
  <path id="Fill-161" class="cls-1" d="M30.13,21.81H30A8.66,8.66,0,0,1,29.16,23l-.12.14a4.33,4.33,0,0,1,.47-.38c.21-.29.42-.6.62-.94m3.56-10.22a16.15,16.15,0,0,0-4.53,7.89c.27-.3.55-.61.83-.9-.41,1.4-.79,2.84-1.21,4.21v.57l.13-.11v-.14l.49-1.29-.2,0c.15-.25.32-.49.48-.73,1.07-2.72,2.18-5.36,3.32-8l.37-.84L32.6,15l0,.12c.07-.1.13-.19.21-.29.3-1.07.59-2.16.91-3.22"></path>
  <path id="Fill-162" class="cls-1" d="M28.9,23.28v-.17l.61-1.62c1.12-2.87,2.28-5.65,3.48-8.38l.37-.84L32.6,15c-.88,3.12-1.84,6.07-3.44,8l-.26.29"></path>
  <path id="Fill-163" class="cls-1" d="M37.79,11.36a10.28,10.28,0,0,0-5,3.45c-.42,1.48-.85,2.92-1.35,4.24a0,0,0,0,1,0,0l.35-.47c1.64-2.14,3.32-4.15,5-6.12l.66-.74-.46.79.31-.35c.15-.26.3-.52.46-.78"></path>
  <path id="Fill-164" class="cls-1" d="M37.33,12.14l-.31.35-.93,1.59A33.74,33.74,0,0,1,34,17.3l.19-.09a55.83,55.83,0,0,0,3.12-5.07"></path>
  <path id="Fill-165" class="cls-1" d="M32.78,14.81c-.08.1-.14.19-.21.29-.41,1.44-.84,2.86-1.34,4.14l.2-.19c.5-1.32.93-2.76,1.35-4.24"></path>
  <path id="Fill-166" class="cls-1" d="M32.57,15.1a11.86,11.86,0,0,0-1.81,4.63c.15-.17.31-.33.47-.49.5-1.28.93-2.7,1.34-4.14"></path>
  <path id="Fill-167" class="cls-1" d="M30.82,20l0-.18.95-1.26c1.64-2.14,3.32-4.15,5-6.12l.66-.74-1.39,2.38c-1.46,2.51-3,4.81-4.9,5.76l-.37.16"></path>
  <path id="Fill-168" class="cls-1" d="M38,16.51a10,10,0,0,0-2.55.3c-.24.28-.48.59-.73.92l-.64-.34A8.21,8.21,0,0,1,31,20l-.42.89.29-.16c2.41-1.3,4.82-2.47,7.22-3.59l.91-.41-2.26,1.64c-2.26,1.64-4.46,3.09-6.58,3.29l-.06.11c3-.23,6.15-3,9.34-5.22A14.48,14.48,0,0,0,38,16.51"></path>
  <path id="Fill-169" class="cls-1" d="M35.45,16.81l-.23.05-.53.69-.38-.2.23-.27-.33.13-.13.18.64.34c.25-.33.49-.64.73-.92"></path>
  <path id="Fill-170" class="cls-1" d="M35.22,16.86l-.68.22-.23.27.38.2.53-.69"></path>
  <path id="Fill-171" class="cls-1" d="M30.19,21.7h-.14a.47.47,0,0,1-.07.12h.15l.06-.11m-.51-.63c-.16.24-.33.48-.48.73l.2,0,0-.12h0l.1-.15h0l0-.05c.06-.14.1-.28.16-.42M31,20l-.16.06c-.14.32-.29.63-.44.93l.18-.1L31,20"></path>
  <path id="Fill-172" class="cls-1" d="M29.44,21.7l0,.12H30a.47.47,0,0,0,.07-.12h-.61m1.32-2c-.36.4-.72.85-1.08,1.34-.06.14-.1.28-.16.42l0,.05.93-.51c.15-.3.3-.61.44-.93l-.19.07c0-.14.05-.29.08-.44"></path>
  <path id="Fill-173" class="cls-1" d="M34,17.34a8.15,8.15,0,0,1-2.79,2.5l-.1.05A.94.94,0,0,0,31,20a8.21,8.21,0,0,0,3-2.65l-.1-.05"></path>
  <path id="Fill-174" class="cls-1" d="M34.21,17.21,34,17.3l0,0,.1.05.13-.18"></path>
  <path id="Fill-175" class="cls-1" d="M31.45,19a0,0,0,0,0,0,0s0,0,0,0l0,0"></path>
  <path id="Fill-176" class="cls-1" d="M31.09,19.89l-.16.06-.06.15L31,20a.94.94,0,0,1,.06-.15m.34-.84-.2.19a1.22,1.22,0,0,0-.07.17l.26-.34s0,0,0,0"></path>
  <path id="Fill-177" class="cls-1" d="M31.23,19.24c-.16.16-.32.32-.47.49s-.06.3-.08.44l.19-.07.06-.15-.11.05,0-.18.31-.41a1.22,1.22,0,0,1,.07-.17"></path>
  <path id="Fill-178" class="cls-1" d="M34,17.3A8.94,8.94,0,0,0,31.45,19l0,0-.26.34-.31.41,0,.18.27-.11.1-.05A8.15,8.15,0,0,0,34,17.34l0,0"></path>
  <path id="Fill-179" class="cls-1" d="M30.12,21.7H29.4l.1-.15,1.4-.77c2.41-1.3,4.82-2.47,7.22-3.59l.91-.41-2.26,1.64c-2.29,1.67-4.51,3.13-6.65,3.29"></path>
  <path id="Fill-180" class="cls-1" d="M28.8,22.41c-.14.46-.29.92-.44,1.37.06-.05.11-.11.17-.17.08-.27.17-.54.25-.82,0-.13,0-.26,0-.38m.36-2.93A14.57,14.57,0,0,0,27,22.66a16,16,0,0,1-.3,3.49l.15-.29c.66-1.64,1.33-3.24,2-4.82.06-.54.16-1.06.26-1.56"></path>
  <path id="Fill-181" class="cls-1" d="M30,18.58c-.28.29-.56.6-.83.9-.1.5-.2,1-.26,1.56.17-.39.34-.77.5-1.15l.32-.73-.66,2.34c-.09.31-.18.61-.26.91,0,.12,0,.25,0,.38.42-1.37.8-2.81,1.21-4.21"></path>
  <path id="Fill-182" class="cls-1" d="M26,28.64a2.1,2.1,0,0,1-.24.06,1.15,1.15,0,0,1,0,.19l.23-.25m-.17-.32a.36.36,0,0,1-.07.1v.12a1.42,1.42,0,0,0,.07-.22"></path>
  <path id="Fill-183" class="cls-1" d="M25.88,28.61v-.13l.53-1.39c1-2.47,2-4.85,3-7.2l.32-.73-.66,2.34a22.23,22.23,0,0,1-2.6,6.41l-.58.7"></path>
  <path id="Fill-184" class="cls-1" d="M27,18.63c-1.88,2.51-3,5.42-1.22,9.84a.1.1,0,0,0,0,0,.81.81,0,0,1,0-.16l0,0-.05-.16.12-1.37c.24-2.34.56-4.62.91-6.87l.14-.86.06,2.39c0,.48,0,1,0,1.42a1.51,1.51,0,0,1,.09-.18c0-1.32-.07-2.69-.09-4"></path>
  <path id="Fill-185" class="cls-1" d="M26,28h0l-.18.28a.81.81,0,0,0,0,.16.36.36,0,0,0,.07-.1L26,28M27,22.66a1.51,1.51,0,0,0-.09.18,14.45,14.45,0,0,1-.39,3.67l.18-.36a16,16,0,0,0,.3-3.49"></path>
  <path id="Fill-186" class="cls-1" d="M25.75,28.29l-.05-.16.12-1.37c.24-2.34.56-4.62.91-6.87l.14-.86.06,2.39c.06,2.54,0,4.92-1,6.57l-.21.3"></path>
  <path id="Fill-187" class="cls-1" d="M33.9,20.21a11.23,11.23,0,0,0-4.63,1.94,7.53,7.53,0,0,1-.72.84v-.22a3.07,3.07,0,0,0-.26.25,14.13,14.13,0,0,1-2.52,5c3.07-.78,5.51-4.56,8.13-7.84"></path>
  <path id="Fill-188" class="cls-1" d="M29.51,22.75a4.33,4.33,0,0,0-.47.38l-.14.15v0l-.13.11a1.69,1.69,0,0,0,0,.23,9.91,9.91,0,0,0,.72-.84"></path>
  <path id="Fill-189" class="cls-1" d="M29,23.13l-.13.12v0l.14-.15"></path>
  <path id="Fill-190" class="cls-1" d="M25.77,28.54l-.05.17h.05v-.16"></path>
  <path id="Fill-191" class="cls-1" d="M26.89,25.86l-.15.29-.06.24.21-.53m1.64-2.25c-.06.06-.11.12-.17.17a15.77,15.77,0,0,1-1.9,4.13l-.58.7v-.13l.2-.54a3,3,0,0,1-.24.38,1.42,1.42,0,0,1-.07.22v.16a2.1,2.1,0,0,0,.24-.06,14.29,14.29,0,0,0,2.52-5"></path>
  <path id="Fill-192" class="cls-1" d="M28.36,23.78a10.94,10.94,0,0,0-1.47,2.08l-.21.53a5.88,5.88,0,0,1-.6,1.55l-.2.54v.13l.58-.7a15.77,15.77,0,0,0,1.9-4.13"></path>
  <path id="Fill-193" class="cls-1" d="M26.74,26.15l-.18.36A5.34,5.34,0,0,1,26,28l-.12.34a3,3,0,0,0,.24-.38l.33-.85.27-.7.06-.24"></path>
  <path id="Fill-194" class="cls-1" d="M26.68,26.39l-.27.7-.33.85a5.88,5.88,0,0,0,.6-1.55"></path>
  <path id="Fill-195" class="cls-1" d="M26.56,26.51A14.48,14.48,0,0,0,26,28a5.34,5.34,0,0,0,.6-1.47"></path>
  <path id="Fill-197" class="cls-1" d="M23.61,25.6a5.44,5.44,0,0,0-2,4,5.81,5.81,0,0,1,1.13,2.21c.33-1.8.12-3.51.4-5.17l.11-.52,0,0,.19-.18v.22A12.06,12.06,0,0,0,24,28.8c0-.07.07-.13.1-.19a8.79,8.79,0,0,1-.47-3"></path>
  <path id="Fill-198" class="cls-1" d="M23.24,26.13l0,0,.19-.18v.22c.06,2.49,1.93,4.25-.73,6.62l-.3.25.06-.18c.66-2.18.31-4.22.64-6.18l.11-.52"></path>
  <path id="Fill-199" class="cls-1" d="M22.84,37a40,40,0,0,0,1.88-7.46l.3-2.3,0,0,.18.67.14.7a22.16,22.16,0,0,1,.29,2.2v.55l0,.06v.09c0,2.3-.66,4.26-2.83,5.52m2.25-10.12a17.6,17.6,0,0,0-1,1.75A3.72,3.72,0,0,1,23,32.71a12.05,12.05,0,0,1-.6,5.69,50.41,50.41,0,0,0-1.5-8.65l-.33-1,.55.53a6.57,6.57,0,0,1,.48.57,1.48,1.48,0,0,1,0-.21,8.81,8.81,0,0,0-1.2-1.24c.32,3-.83,4.33.77,7.66A17.77,17.77,0,0,1,20.88,41c.14.9.27,1.8.35,2.67a2.36,2.36,0,0,0,.12-.28l-.13,0L22,39.2c2.92-2.4,3.83-7.34,6.4-9l.23-.12.31,0-.31.28c-2.81,2.78-.83,4.81-6,9l0,.06L21.43,43.2c.12-.29.26-.57.39-.85l.88-2.85c5.55-4.51,3-6.58,6.67-9.61a5,5,0,0,0-3.59,1.43,13.87,13.87,0,0,0-.69-4.46"></path>
  <path id="Fill-200" class="cls-1" d="M21.6,29.61a1.48,1.48,0,0,0,0,.21,5.27,5.27,0,0,1,1.06,2.26l0,.05c0-.1,0-.21.06-.31a5.81,5.81,0,0,0-1.13-2.21m2.48-1c0,.06-.07.12-.1.19a3.43,3.43,0,0,1-1,3.75l0,.16a3.72,3.72,0,0,0,1.09-4.1"></path>
  <path id="Fill-201" class="cls-1" d="M24,28.8a14.67,14.67,0,0,0-1.2,3.25,1.89,1.89,0,0,0-.05-.23c0,.1,0,.21-.06.31a.13.13,0,0,0,.11.06l.08,0h0v0l.09.37a3.43,3.43,0,0,0,1-3.75"></path>
  <path id="Fill-202" class="cls-1" d="M21.22,43.41,22,39.2c2.92-2.4,3.83-7.34,6.4-9l.23-.12.31,0-.31.28c-2.81,2.78-.83,4.81-6,9l0,.06-1.21,3.91-.15,0m-.66-14.69.55.53a5.87,5.87,0,0,1,1.54,2.83.14.14,0,0,0,.21.09h0v0a11.3,11.3,0,0,1-.48,6.22,50.41,50.41,0,0,0-1.5-8.65l-.33-1M25,27.22l0,0,.18.67.14.7a22.16,22.16,0,0,1,.29,2.2v.55l0,.06v.09c0,2.3-.66,4.26-2.83,5.52a40,40,0,0,0,1.88-7.46l.3-2.3"></path>
  <path id="Fill-203" class="cls-1" d="M16.63,37.11c-1.1,5.14-1.24,10.29,1.87,15.5a22.75,22.75,0,0,0-1.11-4.48,5.42,5.42,0,0,1,.67.68,62.25,62.25,0,0,1-1.36-9.44l-.08-1.45.06-.29,1.41,4.07a1.84,1.84,0,0,0,.05-.25c-.5-1.44-1-2.89-1.51-4.34"></path>
  <path id="Fill-204" class="cls-1" d="M20.34,55l-.71-.92-.27-.39-.43-1.46A61.52,61.52,0,0,1,16.7,39.37l-.08-1.45.06-.29L18.18,42c1.51,4.35,2.77,8.57,2.29,12.31l-.13.73"></path>
  <path id="Fill-206" class="cls-1" d="M19.2,49.41c0,.1.07.21.11.32l0,0c0-.1-.1-.2-.14-.29"></path>
  <path id="Fill-208" class="cls-1" d="M21.1,43.56l0,.35a2.44,2.44,0,0,0,.1-.24l-.13-.11m-.92-6.89a17.11,17.11,0,0,0-2,4.78c.61,1.72,1.18,3.43,1.63,5.1l.18-.28c0-2.61,0-5.19.12-7.74l.07-1.3.55,3.45c0,.23.08.47.12.7,0-.14.05-.27.07-.4-.23-1.43-.48-2.88-.7-4.31"></path>
  <path id="Fill-209" class="cls-1" d="M20.88,41c0,.13-.05.26-.07.4.11.74.21,1.47.29,2.18l.13.11v0c-.08-.87-.21-1.77-.35-2.67"></path>
  <path id="Fill-210" class="cls-1" d="M18.14,41.45a1.84,1.84,0,0,1-.05.25l.09.25c.56,1.61,1.09,3.21,1.5,4.77l.09-.17c-.45-1.67-1-3.38-1.63-5.1"></path>
  <path id="Fill-211" class="cls-1" d="M19.91,49.16l-.57.54c.16.3.32.6.5.91,0-.5,0-1,.07-1.45M18.09,41.7a11.66,11.66,0,0,0,1.11,7.71,3.58,3.58,0,0,1,.48-2.69c-.41-1.56-.94-3.16-1.5-4.77l-.09-.25"></path>
  <path id="Fill-212" class="cls-1" d="M20,46.27l-.18.28c.07.24.13.47.18.7v-1"></path>
  <path id="Fill-213" class="cls-1" d="M19.77,46.55l-.09.17c.11.38.19.76.28,1.13,0-.2,0-.4,0-.6s-.11-.46-.18-.7"></path>
  <path id="Fill-214" class="cls-1" d="M19.68,46.72a3.58,3.58,0,0,0-.48,2.69c0,.09.1.19.14.29l.57-.54c0-.07,0-.15,0-.22l-.55.54-.08-.26.67-1c0-.13,0-.26,0-.38-.09-.37-.17-.75-.28-1.13"></path>
  <path id="Fill-215" class="cls-1" d="M20,48.23l-.67,1,.08.26.55-.54c0-.15,0-.29.05-.45s0-.17,0-.26"></path>
  <path id="Fill-216" class="cls-1" d="M20.16,50.87l-.11-.19-.07-2c-.08-3.44,0-6.8.09-10.13l.07-1.3.55,3.45c.59,3.61,1,7-.26,9.69l-.27.5"></path>
  <path id="Fill-217" class="cls-1" d="M23.43,39.58a27,27,0,0,0-1.61,2.77l-.44,1.43-.14-.1c0,.25.05.51.07.77.36-.43.75-.87,1.15-1.29.16-.6.32-1.2.47-1.79l.24-.86-.33,2.24c.05-.06.11-.11.16-.16.14-1,.28-2,.43-3"></path>
  <path id="Fill-218" class="cls-1" d="M21.82,42.35c-.13.28-.27.56-.39.85l-.06.16h0a2.36,2.36,0,0,1-.12.28s0,0,0,0l.14.1.44-1.43"></path>
  <path id="Fill-219" class="cls-1" d="M21.43,43.2a1.3,1.3,0,0,0-.08.17h0l.06-.16"></path>
  <path id="Fill-220" class="cls-1" d="M22.46,43.16c-.4.42-.79.86-1.15,1.29,0,.58.06,1.17.06,1.73l.5-.73c.19-.77.39-1.53.59-2.29m.54-.57c-.05,0-.11.1-.16.16l-.11.76-.12.85.17-.25c.07-.5.15-1,.22-1.52"></path>
  <path id="Fill-221" class="cls-1" d="M20.79,49.83c-.07.19-.15.38-.23.57a2.51,2.51,0,0,0,0,.27c.06-.28.12-.56.19-.84m.51-2.12,0,0a1.1,1.1,0,0,1,0,.18l.05-.22m1.1-1.29-.17.22a23.67,23.67,0,0,1-1.54,5.41c0,.1,0,.2,0,.3a24,24,0,0,0,1.7-5.93"></path>
  <path id="Fill-222" class="cls-1" d="M20.69,52.05l-.12.27v.29c.05-.09.09-.18.13-.26s0-.2,0-.3m-.13-1.65-.11.21c0,.16,0,.31.05.45,0-.13.06-.26.1-.39a2.51,2.51,0,0,1,0-.27"></path>
  <path id="Fill-223" class="cls-1" d="M20.57,52.32a3.41,3.41,0,0,1-.17.33,1,1,0,0,1,.07.15l.1-.19v-.29m-.73-1.71c0,.31,0,.63,0,1l.38.73.25-1.13a.3.3,0,0,1,0-.1c0-.14,0-.29-.05-.45a3.92,3.92,0,0,1-.29.53l-.32-.53"></path>
  <path id="Fill-224" class="cls-1" d="M21.37,47.44l-.07.08,0,.23,0,0c0-.09,0-.17.07-.27m1.08-1.29-.17.21c0,.09,0,.18-.05.28l.17-.22a2.56,2.56,0,0,1,.05-.27"></path>
  <path id="Fill-225" class="cls-1" d="M21.87,45.45l-.5.73c0,.46,0,.9-.07,1.34l.07-.08c.16-.67.33-1.33.5-2m.91-1.34-.17.25c-.1.68-.21,1.35-.33,2l.17-.21c.12-.67.22-1.35.33-2"></path>
  <path id="Fill-226" class="cls-1" d="M21.23,43.67a2.44,2.44,0,0,1-.1.24l.06.68.12-.14c0-.26,0-.52-.07-.77h0"></path>
  <path id="Fill-227" class="cls-1" d="M21.23,43.65v0h0s0,0,0,0"></path>
  <path id="Fill-228" class="cls-1" d="M21.31,44.45l-.12.14c0,.61.06,1.2,0,1.79l.14-.2c0-.56,0-1.15-.06-1.73"></path>
  <path id="Fill-229" class="cls-1" d="M21.27,47.75l-.15.16a9.11,9.11,0,0,1-.59,2.24l0,.25c.08-.19.16-.38.23-.57.15-.64.3-1.27.46-1.9a1.1,1.1,0,0,0,0-.18"></path>
  <path id="Fill-230" class="cls-1" d="M20.53,50.15a1.47,1.47,0,0,0-.1.22h0a1.94,1.94,0,0,1,0,.24l.11-.21,0-.25"></path>
  <path id="Fill-231" class="cls-1" d="M20,49.07a.34.34,0,0,1-.08.09c0,.47-.07,1-.07,1.45l.32.53a3.92,3.92,0,0,0,.29-.53,1.94,1.94,0,0,0,0-.24l-.27.5-.11-.19L20,49.07"></path>
  <path id="Fill-232" class="cls-1" d="M21.3,47.52l-.15.17,0,.22.15-.16,0-.23"></path>
  <path id="Fill-233" class="cls-1" d="M20,48.88l-.06.06c0,.07,0,.15,0,.22a.34.34,0,0,0,.08-.09v-.19"></path>
  <path id="Fill-234" class="cls-1" d="M20,48.49c0,.16,0,.3-.05.45l.06-.06v-.39m1.39-2.31-.14.2a11.38,11.38,0,0,1-.08,1.31l.15-.17c0-.44.07-.88.07-1.34"></path>
  <path id="Fill-235" class="cls-1" d="M21.13,43.91A18.18,18.18,0,0,0,20,48.49v.58l.06,1.61.11.19.27-.5h0a1.47,1.47,0,0,1,.1-.22,9.11,9.11,0,0,0,.59-2.24l0-.22a11.38,11.38,0,0,0,.08-1.31c0-.59,0-1.18,0-1.79l-.06-.68"></path>
  <path id="Fill-236" class="cls-1" d="M20.09,53.18l0-.2.41-1.82c.77-3.34,1.59-6.59,2.45-9.79l.24-.86-.44,3c-.52,3.59-1.12,7-2.46,9.38l-.18.29"></path>
  <path id="Fill-237" class="cls-1" d="M16.14,50.45c1.1,4.32,1.31,11.1,3.62,13.88-.3-1.85-.47-3.6-.62-5.26l-2.56-7.91,0,0a14.3,14.3,0,0,1,2.13,3.3L18.69,54a12.56,12.56,0,0,0-2.55-3.52"></path>
  <path id="Fill-238" class="cls-1" d="M21.28,65.37l-1.15-.89L16.58,51.16l0,0c2.46,2.73,3.88,7.31,4.59,12.13l.07,1.77"></path>
  <path id="Fill-239" class="cls-1" d="M24.1,51.45a3.14,3.14,0,0,0-3.4,3.17c-.11-.35-.24-.69-.37-1a2.83,2.83,0,0,1,0,.29,11.76,11.76,0,0,1,1,5.17l0,.09,0,0-.06.43a16.67,16.67,0,0,1-.48,1.84c-.56-2.15-.88-4.44-1.34-6.8-.39-.57-1.42-1.62-1.73-2.19.06.44.22,2.34.27,2.79,1.08,2.4,2.4,4.39,2.84,7.48a43.53,43.53,0,0,1,2.62-10.78.71.71,0,0,1,.58-.42c.14,0,.23.07.2.18a1.4,1.4,0,0,1,.15-.24H24.1"></path>
  <path id="Fill-240" class="cls-1" d="M18.5,52.61c.36.58.75,1.17,1.18,1.75,0-.1-.05-.22-.08-.32l-.24-.36-.43-1.46c-.26-.9-.85-3.31-.87-3.41a5.42,5.42,0,0,0-.67-.68"></path>
  <path id="Fill-241" class="cls-1" d="M20.17,52.18a.61.61,0,0,1-.07.14l.16.37c0-.1,0-.2,0-.3l-.1-.21M17.93,48.9c.21.89.44,1.8.7,2.7l.44,1.45.24.37A32.28,32.28,0,0,0,18,49.08l-.09-.18m-.17-.71c0,.1,0,.19.07.29a17.74,17.74,0,0,1,1.73,2.76c0-.11,0-.2,0-.31a16.91,16.91,0,0,0-1.79-2.74"></path>
  <path id="Fill-242" class="cls-1" d="M20.4,52.65l-.07.15a.66.66,0,0,0,.07.15l.07-.15a1,1,0,0,0-.07-.15m-.55-1.09c0,.1,0,.19,0,.3l.32.63.05-.2-.38-.73"></path>
  <path id="Fill-244" class="cls-1" d="M20.23,52.29l-.05.2c.05.1.09.21.15.31l.07-.15c-.06-.12-.12-.24-.17-.36"></path>
  <path id="Fill-245" class="cls-1" d="M19.14,59.07c.15,1.66.32,3.41.62,5.26a3.5,3.5,0,0,0,1.23,1l0-.47-1.88-5.78M18.69,54l.06.52a31.54,31.54,0,0,1,2.44,8.74c0-.2,0-.41.08-.62A29.84,29.84,0,0,0,18.69,54"></path>
  <path id="Fill-246" class="cls-1" d="M18.75,54.49c.16,1.48.27,3,.39,4.58L21,64.85c0-.47.09-1,.17-1.62a31.54,31.54,0,0,0-2.44-8.74"></path>
  <path id="Fill-247" class="cls-1" d="M23.46,51.94c.38-.71,1.17-.41.56,0-.29.18-.4,1.4-.39,2.61.62,4.81-3.32,6.3-2.35,10.67,0,.62-1.11-.73-1.21-.87-.41-.59,1.12-7.2,3.39-12.42M17.88,49.2l.12.15c1.52,2.07,3.64,7,3.28,9.69l0,.09,0,0-.06.43a16.67,16.67,0,0,1-.48,1.84c-.91-3.52-1.18-7.43-2.54-11.36l-.38-.88"></path>
  <path id="Fill-248" class="cls-1" d="M66.82,96.08c-.79,1.06-1.46,1.61-1.94,1s-.43-1.35,1.94-1"></path>
  <path id="Fill-249" class="cls-1" d="M18.74,65.9A15.37,15.37,0,0,0,19,68.39c1,.74,2,1.5,2.94,2.23-.08-.2-.16-.4-.23-.59-.38-.51-.75-1-1.11-1.5l-.44.09a3.75,3.75,0,0,0,.09-.57c-.22-.31-.44-.63-.66-.93L19,66.26l1.27,1.07a1.09,1.09,0,0,0,0-.18c-.5-.42-1-.83-1.48-1.25"></path>
  <path id="Fill-250" class="cls-1" d="M20.21,68.05a3.75,3.75,0,0,1-.09.57l.44-.09-.35-.48m0-.9a1.09,1.09,0,0,1,0,.18L21,68a1.55,1.55,0,0,1-.07-.23l-.72-.59"></path>
  <path id="Fill-251" class="cls-1" d="M25.52,74.64l-.18,0-1-1.19c-1.71-2.06-3.28-4.17-4.78-6.29L19,66.26,21.06,68c2.18,1.84,4.11,3.69,4.42,6.12l0,.5"></path>
  <path id="Fill-253" class="cls-1" d="M25.55,73.72a.06.06,0,0,0,0,0,.84.84,0,0,0,.05.17,1.55,1.55,0,0,1,0-.21"></path>
  <path id="Fill-255" class="cls-1" d="M21.57,66.92a12.87,12.87,0,0,0,.29,1.33l-.26,0c.46.4.9.8,1.32,1.21a2.17,2.17,0,0,1,.07-.24,17.91,17.91,0,0,0-1.42-2.35m0-1a1.42,1.42,0,0,0,.05.22,9.83,9.83,0,0,1,1.73,2.17l.07-.13a9.19,9.19,0,0,0-1.85-2.26"></path>
  <path id="Fill-256" class="cls-1" d="M20.34,65.22c.18.85.37,1.69.6,2.52l.66.56.26,0a12.87,12.87,0,0,1-.29-1.33l-.11-.15a.43.43,0,0,1-.29.19.1.1,0,0,1-.09,0,1.79,1.79,0,0,1-.12-.8L20.85,66l-.27-.31-.06-.23.45.19h0v-.15a3.14,3.14,0,0,0-.64-.27"></path>
  <path id="Fill-257" class="cls-1" d="M25.6,74h0a4.16,4.16,0,0,1,0,.6,11.42,11.42,0,0,0,2.75,4.86l-.08-.28A12.32,12.32,0,0,1,25.6,74m-8-6.61a23.1,23.1,0,0,0,8.71,12.16c.87.33,1.72.67,2.5,1.06a0,0,0,0,0,0,0,23,23,0,0,1-3.42-5.82h-.07a5.2,5.2,0,0,1-.92,1.35l.16.31-.18-.29c-.07.08-.15.15-.22.22a14.6,14.6,0,0,1-.91-2l-.29-.45A6.89,6.89,0,0,1,19.09,69c-.34-.36-.7-.72-1.09-1.09l-.12-.12,0-.08,1.14.85a1.62,1.62,0,0,1,0-.2l-1.38-1"></path>
  <path id="Fill-258" class="cls-1" d="M21,66.12a1.79,1.79,0,0,0,.12.8.1.1,0,0,0,.09,0,.43.43,0,0,0,.29-.19c-.15-.22-.32-.43-.5-.65m0-.63v.15a5.61,5.61,0,0,1,.66.49,1.42,1.42,0,0,1-.05-.22,3.91,3.91,0,0,0-.61-.42"></path>
  <path id="Fill-259" class="cls-1" d="M21.6,68.3l-.16,0c.5.43,1,.87,1.43,1.32a1.31,1.31,0,0,1,.05-.15c-.42-.41-.86-.81-1.32-1.21"></path>
  <path id="Fill-260" class="cls-1" d="M20.94,67.74A1.55,1.55,0,0,0,21,68l0,0c.13.12.25.22.38.32l.16,0-.66-.56"></path>
  <path id="Fill-261" class="cls-1" d="M25.32,74.66l0,.07h.07s0,0,0-.08M25.6,74c0,.07-.05.14-.07.2l.12.4a4.16,4.16,0,0,0,0-.6m-6.51-5a6.89,6.89,0,0,0,3.84,4.88A34.07,34.07,0,0,0,19.09,69M19,68.39a1.62,1.62,0,0,0,0,.2l.71.52c.72.54,1.43,1.09,2.12,1.62l.09,0,.05,0,.47,1.32.4.94a7.66,7.66,0,0,1-.17-1.68q-.51-.64-1-1.29c.07.19.15.39.23.59-1-.73-1.94-1.49-2.94-2.23"></path>
  <path id="Fill-262" class="cls-1" d="M21,68A20.49,20.49,0,0,0,21.67,70q.48.64,1,1.29a6.4,6.4,0,0,1,.21-1.66c-.45-.45-.93-.89-1.43-1.32-.13-.1-.25-.2-.38-.32l0,0"></path>
  <path id="Fill-263" class="cls-1" d="M25.16,74.7a5.43,5.43,0,0,1-.67,1l-.2.21.08.13a5.2,5.2,0,0,0,.92-1.35l-.13,0m-1.94-.34a14.6,14.6,0,0,0,.91,2c.07-.07.15-.14.22-.22L24.27,76l-.12.13-.08-.18,0-.22-.87-1.34m.13-.25c.24.49.49,1,.76,1.49l.14-1.16a8.51,8.51,0,0,1-.9-.33m2.24-.18a.07.07,0,0,0,0,0h0s0,0,0,0M23,69.27a2.17,2.17,0,0,0-.07.24c.12.12.25.24.37.38-.09-.21-.2-.42-.3-.62m.45-1.1-.07.13A11.88,11.88,0,0,1,24.58,71c0,.13.08.26.11.39,0-.1,0-.2,0-.3a.74.74,0,0,0,0-.14,11.58,11.58,0,0,0-1.26-2.74"></path>
  <path id="Fill-264" class="cls-1" d="M25.25,74.5l-.09.2.13,0,0-.07-.07-.16m.29-.74c0,.08-.06.15-.08.22a1.59,1.59,0,0,0,.07.2c0-.06,0-.13.07-.2a.07.07,0,0,1,0,0,.84.84,0,0,1-.05-.17m-2.88-2.44A7.66,7.66,0,0,0,22.83,73c.17.37.33.74.52,1.11a8.51,8.51,0,0,0,.9.33v-.1l.12-.88,0,0c-.57-.69-1.13-1.39-1.67-2.09m.26-1.81a1.31,1.31,0,0,0-.05.15c.21.2.42.41.61.62l-.19-.39c-.12-.14-.25-.26-.37-.38"></path>
  <path id="Fill-265" class="cls-1" d="M22.87,69.66a6.4,6.4,0,0,0-.21,1.66c.54.7,1.1,1.4,1.67,2.09l0,0,.12-.81c-.33-.8-.65-1.59-1-2.37-.19-.21-.4-.42-.61-.62"></path>
  <path id="Fill-266" class="cls-1" d="M24.09,75.7l0,.22.08.18.12-.13c-.06-.08-.12-.18-.18-.27m.4-3-.12.81-.12.88v.1l-.14,1.16.18.35.2-.21a5.43,5.43,0,0,0,.67-1l.09-.2c-.26-.62-.51-1.24-.76-1.85m.25-1.6c0,.1,0,.2,0,.3.27.93.52,1.8.77,2.63,0-.07.05-.14.08-.22-.27-.84-.52-1.75-.8-2.71"></path>
  <path id="Fill-267" class="cls-1" d="M20.58,65.68l-.06-.23.45.19c1.56.92,3.07,3.49,3.61,5.32,1.12,3.79,1.72,6.71,4.28,8.9l.36.28-.24.65c-4.29-5-4.39-10.34-8.13-14.8l-.27-.31m-2.7,2.14,0-.08,1.85,1.37c.72.54,1.43,1.09,2.12,1.62l.09,0,.05,0,.47,1.32a40.88,40.88,0,0,0,2.1,4.33A40.21,40.21,0,0,0,18,67.94l-.12-.12"></path>
  <path id="Fill-269" class="cls-1" d="M26.29,79.53c.16.1.3.22.46.33a20.5,20.5,0,0,1,2.12.92c0-.06-.05-.13-.08-.19-.78-.39-1.63-.73-2.5-1.06"></path>
  <path id="Fill-270" class="cls-1" d="M23.6,78.67l2.57,1c2.67,1,5.1,2.11,6.17,4.33l.19.48h-.19L31,83.66c-2.29-1.38-4.46-2.86-6.58-4.38l-.82-.61m-.13-.09,0-.12,0,.12h0"></path>
  <path id="Fill-271" class="cls-1" d="M30.42,75.91a13.72,13.72,0,0,0-.54,3.83l3.31,3.88c-.86-2.1-1.62-4.2-2.33-6.3l-.32-1,1.52,2.33c1.45,2.23,2.69,4.41,2.59,6.64l.12.11c.21-3.2-2.34-6.31-4.35-9.5"></path>
  <path id="Fill-272" class="cls-1" d="M34.48,86.35l-.16-.09-.63-1.44c-1.07-2.5-2-5-2.83-7.5l-.32-1,1.52,2.33c1.57,2.42,2.9,4.79,2.53,7.2l-.11.49"></path>
  <path id="Fill-273" class="cls-1" d="M29.87,81l-.12.17.34.21a.17.17,0,0,1,0-.07L29.87,81m-2.05-3.63c.15.61.31,1.23.5,1.84a9.94,9.94,0,0,0,.95.86c-.27-.44-.52-.89-.76-1.33l-.4-.8v0L29.89,80a1.62,1.62,0,0,0,0-.21l-2.06-2.42"></path>
  <path id="Fill-274" class="cls-1" d="M28.78,80.56a0,0,0,0,1,0,0h0l0,0m-.46-1.4.08.28.46.42.36.28L29,80.7c.26.14.51.27.74.42l.12-.17c-.21-.31-.42-.62-.6-.93a9.94,9.94,0,0,1-.95-.86"></path>
  <path id="Fill-275" class="cls-1" d="M34.77,85.41c0,.06,0,.12,0,.17l3.53,3.32.25,0-3.76-3.54M33.31,86.8a19.47,19.47,0,0,1-7.4-2.57l-.3-.17h0l1.5.28a17.69,17.69,0,0,1,5.29,1.91l.07,0a.15.15,0,0,0,.11-.06l0-.08.72.68m-8.16-3c2.58,2.42,5.41,4.32,9.14,4.32h0l1.32.62c.23,0,.48,0,.72,0,.41,0,.82,0,1.24.06a31.61,31.61,0,0,1-3-2.4c0,.06,0,.11,0,.16A11.24,11.24,0,0,1,32,84.64c-.32,0-.62,0-.91,0a12.46,12.46,0,0,0,1.39,1.43,21.33,21.33,0,0,0-7.31-2.3"></path>
  <path id="Fill-276" class="cls-1" d="M28.4,79.44c.12.38.25.75.38,1.12l0,0,.19.1.21-.56-.36-.28-.46-.42"></path>
  <path id="Fill-277" class="cls-1" d="M29.75,81.12l-.08.11.48.3-.06-.2-.34-.21"></path>
  <path id="Fill-278" class="cls-1" d="M28.79,80.59c0,.06.05.13.08.19.27.14.54.29.8.45l.08-.11c-.23-.15-.48-.28-.74-.42l0,.09a1.46,1.46,0,0,1-.16-.19h0"></path>
  <path id="Fill-279" class="cls-1" d="M29.91,83a11.88,11.88,0,0,0,1.16,1.7c.29,0,.59,0,.91,0a6.54,6.54,0,0,1-.7-.81L31,83.66c-.37-.21-.73-.44-1.09-.67"></path>
  <path id="Fill-280" class="cls-1" d="M28.82,80.6a1.46,1.46,0,0,0,.16.19l0-.09-.19-.1"></path>
  <path id="Fill-281" class="cls-1" d="M28.87,80.78a15.34,15.34,0,0,0,1,2.21c.36.23.72.46,1.09.67l.28.17a6.57,6.57,0,0,1-1.13-2.3l-.48-.3c-.26-.16-.53-.31-.8-.45"></path>
  <path id="Fill-282" class="cls-1" d="M34.65,85.3c0,.06,0,.11,0,.17l.12.11s0-.11,0-.17l-.12-.11m-1.94-.78s0,0,0,0l-.74.09a11.24,11.24,0,0,0,2.59,1.92s0-.1,0-.16a.63.63,0,0,1-.12-.11l0,.06-.16-.09-.09-.21c-.53-.5-1-1-1.52-1.53m-2.63-3.26a.17.17,0,0,0,0,.07l.07,0-.08-.12m-.2-1.52a1.62,1.62,0,0,1,0,.21L33.35,84c-.05-.14-.1-.27-.16-.4l-3.31-3.88"></path>
  <path id="Fill-283" class="cls-1" d="M31.28,83.83a6.54,6.54,0,0,0,.7.81l.74-.09s0,0,0,0-.17-.19-.26-.29l.08.21h-.19l-1.06-.62m-1.19-2.5.06.2.25.18-.24-.33-.07,0"></path>
  <path id="Fill-284" class="cls-1" d="M30.15,81.53a6.57,6.57,0,0,0,1.13,2.3l1.06.62h.19l-.08-.21a28.58,28.58,0,0,1-2.05-2.52l-.25-.18"></path>
  <path id="Fill-285" class="cls-1" d="M34.23,86.05l.09.21.16.09,0-.06-.27-.24m-1-2.43c.06.13.11.26.16.4l1,1.23h0l.22.21c0-.06,0-.11,0-.17l-.15-.14-1.31-1.54"></path>
  <path id="Fill-286" class="cls-1" d="M28.11,77.89v0l6.3,7.39h0L39,89.54l-.21.07-.24-.16a30.49,30.49,0,0,1-10-10.76l-.4-.8m-2.5,6.17h0l1.5.28a17.69,17.69,0,0,1,5.29,1.91.13.13,0,0,0,.18,0l0-.08.72.68a19.47,19.47,0,0,1-7.4-2.57l-.3-.17"></path>
  <path id="Fill-287" class="cls-1" d="M46.91,90.73,46,89.89a3,3,0,0,0,.95.84"></path>
  <path id="Fill-289" class="cls-1" d="M55,94.13l9.91,2.12c-.38.41,0,.61,0,.91a36.71,36.71,0,0,0-6.6-1.81,32.56,32.56,0,0,0-3.5-.73l.15-.49"></path>
  <path id="Fill-308" class="cls-1" d="M35.09,40.5l0,0,0,0"></path>
  <path id="Fill-309" class="cls-1" d="M35.31,40.14a.85.85,0,0,1-.13.22.85.85,0,0,0,.13-.22"></path>
  <path id="Fill-356" class="cls-1" d="M52.61,94.15h0v0m0,0h0m0,0h0m0,0h0m0,0v0m-.72-.64h0m0,0v0m0,0v0m.8-.09s0,0,0,.06h0a3.9,3.9,0,0,0-.08.72,4.42,4.42,0,0,1,.09-.78h0m-1.4-.28c.22.12.42.25.6.37-.18-.12-.38-.25-.6-.37h0"></path>
  <path id="Fill-357" class="cls-1" d="M58.57,87.05l.06-.15c.72-3.39-10.41-3.19-11.42-.38l.15.31c-1.13.54-2.42,1.1-2.64,2l.06.18a10.41,10.41,0,0,1,2.77-1.73l0,0,0,0h0l.12-.23,0,0c0-.07.09-.13.13-.19l0-.06.13-.15.08-.07c2.07-1.94,8.39-2.12,10.39.51h0l-.27.87.14-.32a11.18,11.18,0,0,1,2.82,1.48l-.32.94c0-.72-1.67-1.2-2.79-1.75l.09-.21a1.56,1.56,0,0,0-.29-.3h0l0,0-.13-.1-.06,0-.19-.13,0,0-.24-.14-.07,0-.21-.11,0,0h0c-1.82-.93-5.13-1.79-8,.18h0l-.31.22,0,0-.32.25h0l-.24.21.07.14c-.57.25-2.58,1-2.87,1.92.08.19.16.35.23.48v0c.38,1.32,3.28,2.74,5.34,3.74a4.58,4.58,0,0,0-1.48,1c-.7.8.34,1.32-.23,1.6l-2.65,1.21,1.09.58-.34,1.42a19.22,19.22,0,0,0,3.64-2c.93-.8-1.21-1.86,1.26-3a2.12,2.12,0,0,0,.81.28,3.87,3.87,0,0,1,.06-2.64c-.25,0-.48.07-.72.12l-.06.06c-1.68-1.14-5.41-2.42-5.66-3.48a5.21,5.21,0,0,1,1.77-.79l1.42-.31-1.31.06a1.88,1.88,0,0,1,1.07-.83,7.87,7.87,0,0,1,8.25.63,1.88,1.88,0,0,1,.18.24l-1.42-.13a15.64,15.64,0,0,1,2.95,1.13c0,1.09-2.94,2.27-5,3.43h0a4.83,4.83,0,0,0-.74-.13,5.13,5.13,0,0,1,.06,2.6,7.71,7.71,0,0,0,.82-.24v-.08c.73.4,1.15.74.29,1.47s1.15,1.92,4.63,3.21L59,98.24l1.17-.56L57.38,96.6c-.77-.73.61-.87-.28-1.75l-1.38-.71a36.09,36.09,0,0,0,4.56-3,.84.84,0,0,0,.06-.14,7.09,7.09,0,0,0,1-2.27c-.24-.85-1.49-1.26-2.73-1.68M50.49,97.34c.14.75-1.81,1.42-2.88,2l.15-.87-.63-.26,2.27-1c.79-.48-.55-1.32.46-2L51,94.5l.73.36c-1.71.72-1.73,1.12-1.27,2.48m1.41-4a2.53,2.53,0,0,0-.08.82c-1.74-1.18-5.15-2.51-6.2-3.75a1.13,1.13,0,0,1,.32-.53c.65,1.2,4.32,2.32,6,3.46M56.39,95c1.22.52-.57,1.41,0,2l2.65,1-.39.21.14.63c-1.33-.61-3.38-1.13-3.53-1.74,0-.52.82-.92.43-1.64a11.06,11.06,0,0,1-1-.64l.59-.36,1.07.61m-1.88-.84a4,4,0,0,0,0-.6c1.79-1.19,4.82-2.32,5.48-3.58a1.17,1.17,0,0,1,.36.48C59,91.7,56.36,93,54.51,94.15"></path>
  <path id="Fill-359" class="cls-1" d="M38.28,88.9l.18.18.25,0L38.53,89l-.25,0m-1.94-.16c-.24,0-.49,0-.72,0l.25.12h.47a12.24,12.24,0,0,1,1.47.1l-.23-.17c-.42,0-.83-.06-1.24-.06"></path>
  <path id="Fill-360" class="cls-1" d="M37.58,88.8l.23.17c.22,0,.43.06.65.11l-.18-.18-.7-.1"></path>
  <path id="Fill-362" class="cls-1" d="M45.89,89.9c-.06.06-.1.13-.15.19l0,0a.76.76,0,0,1,.11-.14"></path>
  <path id="Fill-363" class="cls-1" d="M45.93,89.86a1.92,1.92,0,0,0-.19.23h0c0-.06.09-.13.15-.19s0,0,0,0"></path>
  <path id="Fill-364" class="cls-1" d="M45.62,90.38h0a12.34,12.34,0,0,0,3.21,2.09h0l.15.08-.45-.24-.28-.15a1.51,1.51,0,0,0-.18-.09l-.46-.26h0l0,0h0l-.34-.19h0l-.08,0-.28-.18h0a5.23,5.23,0,0,1-.52-.35l-.15-.11h0a1.56,1.56,0,0,1-.2-.16l-.08-.07h0c-.11-.1-.22-.2-.3-.29"></path>
  <path id="Fill-365" class="cls-1" d="M45.64,90.39a12.34,12.34,0,0,0,3.21,2.09h0a12.34,12.34,0,0,1-3.21-2.09m0,0h0"></path>
  <path id="Fill-367" class="cls-1" d="M45.66,89.38l-.1.09a1.43,1.43,0,0,0-.44.6l0,.08c.07.15.14.29.2.4v0a1.91,1.91,0,0,0,.32.59,5.63,5.63,0,0,0,1.23,1.08,21.18,21.18,0,0,0,2.27,1.32l1.34.22.56-.14c-.63-.36-1.35-.74-2.08-1.11l-.15-.08a12.34,12.34,0,0,1-3.21-2.09h0a1,1,0,0,1,.12-.28h0a1.92,1.92,0,0,1,.19-.23,0,0,0,0,0,0,0,1.67,1.67,0,0,0,.13.2l0,.06.16.15,0,0,.15.12.06,0,.14.1,0,0,.07,0a7,7,0,0,0,.67.4h0l-1.71-1.54a1.21,1.21,0,0,1-.1-.14m-.7-1-.08.12a1.8,1.8,0,0,0-.16.38l.06.18a2.8,2.8,0,0,1,.3-.27.43.43,0,0,0,.1-.09L45,88.37"></path>
  <path id="Fill-368" class="cls-1" d="M49.9,94l-9.46,2.29a8.17,8.17,0,0,1,.82,0c1.46,0,1.88.6.4,1.6,2.05-.8,4.67-1.64,7.51-2.42l0-.05a4.58,4.58,0,0,1,1.48-1L49.9,94m2-.42h0m0,0h0m0,0h0s0,0,0,0,0,0,0,0"></path>
  <path id="Fill-369" class="cls-1" d="M41.26,96.19a8.17,8.17,0,0,0-.82,0l-.09,0,.72,0c2.14,0,1.6.89.55,1.57h0c1.48-1,1.06-1.6-.4-1.6"></path>
  <path id="Fill-370" class="cls-1" d="M51,94.5l-1.1.66,1.61-.42L51,94.5m1.58-.38v0m0,0v0m0,0v0m0,0v0m0,0h0m-1,0,.21.14v0L51.61,94m0,0h0"></path>
  <path id="Fill-371" class="cls-1" d="M52.69,93.28h0a3.57,3.57,0,0,0-.07.88h0v0h0v0h0v0h0v0h0a3.9,3.9,0,0,1,.08-.72"></path>
  <path id="Fill-372" class="cls-1" d="M52.68,93.28l-.82.2s0,0,0,0h0a2.49,2.49,0,0,0,0,.56v0L51.61,94h0l-.52-.31h0l.53.32h0l-1.09-.18L49.9,94l.8.39a4.58,4.58,0,0,0-1.48,1l0,.05.76-.21L51,94.5l.51.24,1.07-.26v-.32a3.57,3.57,0,0,1,.07-.88"></path>
  <path id="Fill-373" class="cls-1" d="M51.08,93.67l-.56.14,1.09.18h0l-.53-.32"></path>
  <path id="Fill-374" class="cls-1" d="M54.43,92.86l-.19,0h.06l.13-.07m1.46-.14c-.52.28-1,.55-1.43.83.42-.28.91-.55,1.43-.83m0,0h0"></path>
  <path id="Fill-375" class="cls-1" d="M56.6,92.33l-2.17.53-.13.07h-.06l-.59.14c0,.11,0,.24.06.38l.76.15s0,.09,0,.14a1,1,0,0,0,0-.17c.42-.28.91-.55,1.43-.83,0,0,0,0,0,0h0l.7-.38"></path>
  <path id="Fill-379" class="cls-1" d="M67.09,82.59a17.46,17.46,0,0,0-5.91,5.86.88.88,0,0,1,.12.28,7.09,7.09,0,0,1-1,2.27.84.84,0,0,1-.06.14A21.07,21.07,0,0,1,57.62,93h0a3.48,3.48,0,0,1,.52-.06c.14,0-.19.09-.8.22l-.7.42a58.08,58.08,0,0,1,10.55-1.31h.49l6-2.78.81.07a10.36,10.36,0,0,0-4-1.12L68,89.63l-1-.37.68-.64a2.59,2.59,0,0,0-.42.09,5.91,5.91,0,0,1-.33.67l-1.35.25.15-.47-1,.39c1.59-2.56,2.72-5.17,2.32-7"></path>
  <path id="Fill-379-2" data-name="Fill-379" class="cls-1" d="M38.31,81.8c-.4,1.79.73,4.4,2.32,7-.33-.15-.88-.08-.83.08H37.36l-2.47-1.18a10.1,10.1,0,0,0-4,1.11l.82-.07,6,2.79h.49a57.21,57.21,0,0,1,10.55,1.32l-.7-.43c-.6-.13-.94-.22-.8-.22l.52.06h0a24.38,24.38,0,0,1-2.66-1.84l-.06-.16a6.88,6.88,0,0,1-1-2.27,1.59,1.59,0,0,1,.12-.27,17.37,17.37,0,0,0-5.91-5.86"></path>
  <path id="Fill-380" class="cls-1" d="M69.81,88.41c-.4,0-.8,0-1.21.06-.29.23-.59.44-.89.65l-.24.16-.2-.07.65-.64-.22.05-.68.64,1,.37,2.47-1.2-.7,0"></path>
  <path id="Fill-381" class="cls-1" d="M68.6,88.47l-.68.1-.65.64.2.07.24-.16c.3-.21.6-.42.89-.65"></path>
  <path id="Fill-382" class="cls-1" d="M59.84,90.13h0m0,0h0m0,0h0m0,0h0m0,0h0m0,0h0m0,0h0m1-1.16-.23.36-.25.22a.82.82,0,0,1,.41.59l.32-.94a2,2,0,0,0-.25-.23"></path>
  <path id="Fill-383" class="cls-1" d="M67.28,88.71a11.06,11.06,0,0,0-1.53.45l-.15.47L67,89.38a5.91,5.91,0,0,0,.33-.67"></path>
  <path id="Fill-384" class="cls-1" d="M57.36,93.15c-.49.12-1.14.25-1.86.4l-.3.18.36.08,1.1-.24.7-.42m3.82-4.7c-.08.13-.17.26-.26.38a2,2,0,0,1,.25.23l-.32.94a.82.82,0,0,0-.41-.59l-2.2,2a5.16,5.16,0,0,0,1.6-1.3h0s0,0,0,0h0s0,0,0,0h0s0,0,0,0h0a0,0,0,0,1,0,0h0a0,0,0,0,0,0,0h0v0a1.17,1.17,0,0,1,.36.48,23.79,23.79,0,0,1-4.16,2.73L57.62,93a21.07,21.07,0,0,0,2.66-1.85.84.84,0,0,0,.06-.14,7.09,7.09,0,0,0,1-2.27.88.88,0,0,0-.12-.28"></path>
  <path id="Fill-385" class="cls-1" d="M59.81,90.17,58.9,91a3.93,3.93,0,0,0,.91-.83"></path>
  <path id="Fill-387" class="cls-1" d="M57.64,93l-1.5.19-.64.37c2-.42,3.56-.76,2.14-.56"></path>
  <path id="Fill-388" class="cls-1" d="M53.71,93.43a4.33,4.33,0,0,1,0,.66,4.33,4.33,0,0,0,0-.66h0"></path>
  <path id="Fill-389" class="cls-1" d="M57.32,95.13s0,0,0,0a74.48,74.48,0,0,1,7.56,2.08.13.13,0,0,1,0-.06s0,0,0,0a36.12,36.12,0,0,0-6.53-1.78c-.24,0-.61-.12-1-.22M56.1,93.92l-.38.22.47.25,8.65,1.84A1.92,1.92,0,0,1,65.9,96a6.38,6.38,0,0,1,.7,0h0L56.1,93.92"></path>
  <path id="Fill-391" class="cls-1" d="M56.19,94.39l.91.46a1.27,1.27,0,0,1,.22.28c.42.1.79.19,1,.22a36.12,36.12,0,0,1,6.53,1.78h0a.34.34,0,0,0,0-.1c-.1-.24-.33-.44,0-.79l-.07,0-8.65-1.84"></path>
  <path id="Fill-392" class="cls-1" d="M54.93,94.61h0l1.33.28-.17-.09a6.53,6.53,0,0,0-1.14-.2m-1.17-.4h0v0m.75-.21v0"></path>
  <path id="Fill-396" class="cls-1" d="M53.71,93.43a4.33,4.33,0,0,1,0,.66h0v.12l.75-.18,0-.31s0-.1,0-.14l-.76-.15"></path>
  <path id="Fill-397" class="cls-1" d="M55.2,93.73l-.4.24.76-.16-.36-.08"></path>
  <path id="Fill-398" class="cls-1" d="M54.7,93.41l-1,.17a3.31,3.31,0,0,1,0,.34l.73-.16,0-.21.24-.14"></path>
  <path id="Fill-399" class="cls-1" d="M50.13,94.68c.14,0,1.18-.26,2.48-.53,0-.13,0-.25,0-.35-3.42.69-6.77,1.63-10.15,2.57.24.33.31.61-.39,1.14,3.25-1.33,13.69-3.8,8.05-2.83"></path>
  <path class="cls-1" d="M42.18,89.15a16.46,16.46,0,0,0-4.87-2.82,9.77,9.77,0,0,1-2.55-.83c.2,1.93,6.11,6.28,6.4,2.68"></path>
   </g>
    </g>
  </g>
</svg>
